<mxfile>
    <diagram id="gzGWxYLW0LsG8s33BjYR" name="Algorithm">
        <mxGraphModel dx="1118" dy="779" grid="1" gridSize="10" guides="1" tooltips="1" connect="1" arrows="1" fold="1" page="1" pageScale="1" pageWidth="850" pageHeight="1100" math="0" shadow="0">
            <root>
                <mxCell id="P_763lVRbbRgGYn9D_8V-0"/>
                <mxCell id="P_763lVRbbRgGYn9D_8V-1" parent="P_763lVRbbRgGYn9D_8V-0"/>
                <mxCell id="EhgCr9Bk9AYyVQ0TSEqv-0" value="IRPManager" style="swimlane;fontStyle=1;align=center;verticalAlign=top;childLayout=stackLayout;horizontal=1;startSize=26;horizontalStack=0;resizeParent=1;resizeParentMax=0;resizeLast=0;collapsible=1;marginBottom=0;fillColor=#008a00;strokeColor=#005700;fontColor=#ffffff;" parent="P_763lVRbbRgGYn9D_8V-1" vertex="1">
                    <mxGeometry x="80" y="80" width="210" height="270" as="geometry"/>
                </mxCell>
                <mxCell id="EhgCr9Bk9AYyVQ0TSEqv-1" value="Purpose:&#10;Perform algorithm related methods" style="text;strokeColor=none;fillColor=none;align=left;verticalAlign=top;spacingLeft=4;spacingRight=4;overflow=hidden;rotatable=0;points=[[0,0.5],[1,0.5]];portConstraint=eastwest;" parent="EhgCr9Bk9AYyVQ0TSEqv-0" vertex="1">
                    <mxGeometry y="26" width="210" height="64" as="geometry"/>
                </mxCell>
                <mxCell id="EhgCr9Bk9AYyVQ0TSEqv-2" value="" style="line;strokeWidth=1;fillColor=none;align=left;verticalAlign=middle;spacingTop=-1;spacingLeft=3;spacingRight=3;rotatable=0;labelPosition=right;points=[];portConstraint=eastwest;" parent="EhgCr9Bk9AYyVQ0TSEqv-0" vertex="1">
                    <mxGeometry y="90" width="210" height="8" as="geometry"/>
                </mxCell>
                <mxCell id="EhgCr9Bk9AYyVQ0TSEqv-3" value="Methods related to algorithm:&#10;&#10;void IRPManager::offloadUserKPIs()&#10;New algorithm based on KPIs&#10;- RSRP" style="text;strokeColor=none;fillColor=none;align=left;verticalAlign=top;spacingLeft=4;spacingRight=4;overflow=hidden;rotatable=0;points=[[0,0.5],[1,0.5]];portConstraint=eastwest;" parent="EhgCr9Bk9AYyVQ0TSEqv-0" vertex="1">
                    <mxGeometry y="98" width="210" height="172" as="geometry"/>
                </mxCell>
                <mxCell id="EhgCr9Bk9AYyVQ0TSEqv-4" value="Algorithm Related Classes" style="text;strokeColor=none;fillColor=none;html=1;fontSize=24;fontStyle=1;verticalAlign=middle;align=center;" parent="P_763lVRbbRgGYn9D_8V-1" vertex="1">
                    <mxGeometry x="375" y="20" width="100" height="40" as="geometry"/>
                </mxCell>
                <mxCell id="bVzltMthEKLoWDJMZpQD-8" value="BaseStation" style="swimlane;fontStyle=1;align=center;verticalAlign=top;childLayout=stackLayout;horizontal=1;startSize=26;horizontalStack=0;resizeParent=1;resizeParentMax=0;resizeLast=0;collapsible=1;marginBottom=0;fillColor=#008a00;strokeColor=#005700;fontColor=#ffffff;" parent="P_763lVRbbRgGYn9D_8V-1" vertex="1">
                    <mxGeometry x="320" y="80" width="280" height="270" as="geometry"/>
                </mxCell>
                <mxCell id="bVzltMthEKLoWDJMZpQD-9" value="Purpose:&#10;Perform transmissions between BaseStations&#10;and User Equipments&#10;&#10;Perform power calculation (based on SNR)&#10;Calculate KPIs" style="text;strokeColor=none;fillColor=none;align=left;verticalAlign=top;spacingLeft=4;spacingRight=4;overflow=hidden;rotatable=0;points=[[0,0.5],[1,0.5]];portConstraint=eastwest;" parent="bVzltMthEKLoWDJMZpQD-8" vertex="1">
                    <mxGeometry y="26" width="280" height="94" as="geometry"/>
                </mxCell>
                <mxCell id="bVzltMthEKLoWDJMZpQD-10" value="" style="line;strokeWidth=1;fillColor=none;align=left;verticalAlign=middle;spacingTop=-1;spacingLeft=3;spacingRight=3;rotatable=0;labelPosition=right;points=[];portConstraint=eastwest;" parent="bVzltMthEKLoWDJMZpQD-8" vertex="1">
                    <mxGeometry y="120" width="280" height="8" as="geometry"/>
                </mxCell>
                <mxCell id="bVzltMthEKLoWDJMZpQD-11" value="Methods related to algorithm:&#10;&#10;bool BaseStation::Update()&#10;- Calculate KPIs&#10;&#10;" style="text;strokeColor=none;fillColor=none;align=left;verticalAlign=top;spacingLeft=4;spacingRight=4;overflow=hidden;rotatable=0;points=[[0,0.5],[1,0.5]];portConstraint=eastwest;" parent="bVzltMthEKLoWDJMZpQD-8" vertex="1">
                    <mxGeometry y="128" width="280" height="142" as="geometry"/>
                </mxCell>
                <mxCell id="bVzltMthEKLoWDJMZpQD-12" value="Algorithm GUI Related Classes" style="text;strokeColor=none;fillColor=none;html=1;fontSize=24;fontStyle=1;verticalAlign=middle;align=center;" parent="P_763lVRbbRgGYn9D_8V-1" vertex="1">
                    <mxGeometry x="375" y="420" width="100" height="40" as="geometry"/>
                </mxCell>
                <mxCell id="TqJkxWrmb4IKA28fTYH4-0" value="Simulator" style="swimlane;fontStyle=1;align=center;verticalAlign=top;childLayout=stackLayout;horizontal=1;startSize=26;horizontalStack=0;resizeParent=1;resizeParentMax=0;resizeLast=0;collapsible=1;marginBottom=0;fillColor=#008a00;strokeColor=#005700;fontColor=#ffffff;" parent="P_763lVRbbRgGYn9D_8V-1" vertex="1">
                    <mxGeometry x="70" y="530" width="210" height="270" as="geometry"/>
                </mxCell>
                <mxCell id="TqJkxWrmb4IKA28fTYH4-1" value="Purpose:&#10;Creating KPI parameters to be able&#10;to be accessed by other classes" style="text;strokeColor=none;fillColor=none;align=left;verticalAlign=top;spacingLeft=4;spacingRight=4;overflow=hidden;rotatable=0;points=[[0,0.5],[1,0.5]];portConstraint=eastwest;" parent="TqJkxWrmb4IKA28fTYH4-0" vertex="1">
                    <mxGeometry y="26" width="210" height="64" as="geometry"/>
                </mxCell>
                <mxCell id="TqJkxWrmb4IKA28fTYH4-2" value="" style="line;strokeWidth=1;fillColor=none;align=left;verticalAlign=middle;spacingTop=-1;spacingLeft=3;spacingRight=3;rotatable=0;labelPosition=right;points=[];portConstraint=eastwest;" parent="TqJkxWrmb4IKA28fTYH4-0" vertex="1">
                    <mxGeometry y="90" width="210" height="8" as="geometry"/>
                </mxCell>
                <mxCell id="TqJkxWrmb4IKA28fTYH4-3" value="Methods related to algorithm:&#10;&#10;Getters / Setters&#10;- For the KPI related properties such&#10;as RSRPThreshold" style="text;strokeColor=none;fillColor=none;align=left;verticalAlign=top;spacingLeft=4;spacingRight=4;overflow=hidden;rotatable=0;points=[[0,0.5],[1,0.5]];portConstraint=eastwest;" parent="TqJkxWrmb4IKA28fTYH4-0" vertex="1">
                    <mxGeometry y="98" width="210" height="172" as="geometry"/>
                </mxCell>
                <mxCell id="bVzltMthEKLoWDJMZpQD-17" value="GUIDataContainer" style="swimlane;fontStyle=1;align=center;verticalAlign=top;childLayout=stackLayout;horizontal=1;startSize=26;horizontalStack=0;resizeParent=1;resizeParentMax=0;resizeLast=0;collapsible=1;marginBottom=0;fillColor=#008a00;strokeColor=#005700;fontColor=#ffffff;" parent="P_763lVRbbRgGYn9D_8V-1" vertex="1">
                    <mxGeometry x="320" y="530" width="210" height="270" as="geometry"/>
                </mxCell>
                <mxCell id="bVzltMthEKLoWDJMZpQD-18" value="Purpose:&#10;Set default values for the simulator" style="text;strokeColor=none;fillColor=none;align=left;verticalAlign=top;spacingLeft=4;spacingRight=4;overflow=hidden;rotatable=0;points=[[0,0.5],[1,0.5]];portConstraint=eastwest;" parent="bVzltMthEKLoWDJMZpQD-17" vertex="1">
                    <mxGeometry y="26" width="210" height="64" as="geometry"/>
                </mxCell>
                <mxCell id="bVzltMthEKLoWDJMZpQD-19" value="" style="line;strokeWidth=1;fillColor=none;align=left;verticalAlign=middle;spacingTop=-1;spacingLeft=3;spacingRight=3;rotatable=0;labelPosition=right;points=[];portConstraint=eastwest;" parent="bVzltMthEKLoWDJMZpQD-17" vertex="1">
                    <mxGeometry y="90" width="210" height="8" as="geometry"/>
                </mxCell>
                <mxCell id="bVzltMthEKLoWDJMZpQD-20" value="Methods related to algorithm:&#10;&#10;None (initilizes values for simulator)" style="text;align=left;verticalAlign=top;spacingLeft=4;spacingRight=4;overflow=hidden;rotatable=0;points=[[0,0.5],[1,0.5]];portConstraint=eastwest;" parent="bVzltMthEKLoWDJMZpQD-17" vertex="1">
                    <mxGeometry y="98" width="210" height="172" as="geometry"/>
                </mxCell>
                <mxCell id="bVzltMthEKLoWDJMZpQD-25" value="GUIMain" style="swimlane;fontStyle=1;align=center;verticalAlign=top;childLayout=stackLayout;horizontal=1;startSize=26;horizontalStack=0;resizeParent=1;resizeParentMax=0;resizeLast=0;collapsible=1;marginBottom=0;fillColor=#008a00;strokeColor=#005700;fontColor=#ffffff;" parent="P_763lVRbbRgGYn9D_8V-1" vertex="1">
                    <mxGeometry x="600" y="530" width="220" height="268" as="geometry"/>
                </mxCell>
                <mxCell id="bVzltMthEKLoWDJMZpQD-26" value="Purpose:&#10;Creates GUI simulation application.&#10;Gives options for user to save/&#10;analyze data" style="text;strokeColor=none;fillColor=none;align=left;verticalAlign=top;spacingLeft=4;spacingRight=4;overflow=hidden;rotatable=0;points=[[0,0.5],[1,0.5]];portConstraint=eastwest;" parent="bVzltMthEKLoWDJMZpQD-25" vertex="1">
                    <mxGeometry y="26" width="220" height="74" as="geometry"/>
                </mxCell>
                <mxCell id="bVzltMthEKLoWDJMZpQD-27" value="" style="line;strokeWidth=1;fillColor=none;align=left;verticalAlign=middle;spacingTop=-1;spacingLeft=3;spacingRight=3;rotatable=0;labelPosition=right;points=[];portConstraint=eastwest;" parent="bVzltMthEKLoWDJMZpQD-25" vertex="1">
                    <mxGeometry y="100" width="220" height="8" as="geometry"/>
                </mxCell>
                <mxCell id="bVzltMthEKLoWDJMZpQD-28" value="Methods related to algorithm:&#10;&#10;Most are implemented inside of&#10;GUIMain&#10;&#10;&#10;&#10;&#10;&#10;&#10;Note: uses GTK library for all GUI" style="text;align=left;verticalAlign=top;spacingLeft=4;spacingRight=4;overflow=hidden;rotatable=0;points=[[0,0.5],[1,0.5]];portConstraint=eastwest;" parent="bVzltMthEKLoWDJMZpQD-25" vertex="1">
                    <mxGeometry y="108" width="220" height="160" as="geometry"/>
                </mxCell>
                <mxCell id="bVzltMthEKLoWDJMZpQD-29" value="EnvironmentInitialization" style="swimlane;fontStyle=1;align=center;verticalAlign=top;childLayout=stackLayout;horizontal=1;startSize=26;horizontalStack=0;resizeParent=1;resizeParentMax=0;resizeLast=0;collapsible=1;marginBottom=0;fillColor=#008a00;strokeColor=#005700;fontColor=#ffffff;" parent="P_763lVRbbRgGYn9D_8V-1" vertex="1">
                    <mxGeometry x="70" y="820" width="230" height="270" as="geometry"/>
                </mxCell>
                <mxCell id="bVzltMthEKLoWDJMZpQD-30" value="Purpose:&#10;Calls Simulator setter methods to modify&#10;the simulator's internal variables" style="text;strokeColor=none;fillColor=none;align=left;verticalAlign=top;spacingLeft=4;spacingRight=4;overflow=hidden;rotatable=0;points=[[0,0.5],[1,0.5]];portConstraint=eastwest;" parent="bVzltMthEKLoWDJMZpQD-29" vertex="1">
                    <mxGeometry y="26" width="230" height="64" as="geometry"/>
                </mxCell>
                <mxCell id="bVzltMthEKLoWDJMZpQD-31" value="" style="line;strokeWidth=1;fillColor=none;align=left;verticalAlign=middle;spacingTop=-1;spacingLeft=3;spacingRight=3;rotatable=0;labelPosition=right;points=[];portConstraint=eastwest;" parent="bVzltMthEKLoWDJMZpQD-29" vertex="1">
                    <mxGeometry y="90" width="230" height="8" as="geometry"/>
                </mxCell>
                <mxCell id="bVzltMthEKLoWDJMZpQD-32" value="Methods related to algorithm:&#10;&#10;Simulator::set___()&#10;&#10;" style="text;strokeColor=none;fillColor=none;align=left;verticalAlign=top;spacingLeft=4;spacingRight=4;overflow=hidden;rotatable=0;points=[[0,0.5],[1,0.5]];portConstraint=eastwest;" parent="bVzltMthEKLoWDJMZpQD-29" vertex="1">
                    <mxGeometry y="98" width="230" height="172" as="geometry"/>
                </mxCell>
            </root>
        </mxGraphModel>
    </diagram>
    <diagram id="xNZVOmtVQG4588c9z4oc" name="User Mobility">
        <mxGraphModel dx="1118" dy="779" grid="1" gridSize="10" guides="1" tooltips="1" connect="1" arrows="1" fold="1" page="1" pageScale="1" pageWidth="850" pageHeight="1100" math="0" shadow="0">
            <root>
                <mxCell id="7WKU14XymeaWdeCZGkRU-0"/>
                <mxCell id="7WKU14XymeaWdeCZGkRU-1" parent="7WKU14XymeaWdeCZGkRU-0"/>
                <mxCell id="TSFATDBbxW8YoYVpnxk1-0" value="User Mobility &lt;br&gt;Related Classes" style="text;strokeColor=none;fillColor=none;html=1;fontSize=24;fontStyle=1;verticalAlign=middle;align=center;" parent="7WKU14XymeaWdeCZGkRU-1" vertex="1">
                    <mxGeometry x="375" y="20" width="100" height="40" as="geometry"/>
                </mxCell>
                <mxCell id="EnxyLS9ktGub7Tj-1Koa-0" value="EnvironmentController" style="swimlane;fontStyle=1;align=center;verticalAlign=top;childLayout=stackLayout;horizontal=1;startSize=26;horizontalStack=0;resizeParent=1;resizeParentMax=0;resizeLast=0;collapsible=1;marginBottom=0;fillColor=#008a00;strokeColor=#005700;fontColor=#ffffff;" parent="7WKU14XymeaWdeCZGkRU-1" vertex="1">
                    <mxGeometry x="40" y="80" width="260" height="270" as="geometry"/>
                </mxCell>
                <mxCell id="EnxyLS9ktGub7Tj-1Koa-1" value="Purpose:&#10;Calculate where to move users and then&#10;call functions to move them" style="text;strokeColor=none;fillColor=none;align=left;verticalAlign=top;spacingLeft=4;spacingRight=4;overflow=hidden;rotatable=0;points=[[0,0.5],[1,0.5]];portConstraint=eastwest;" parent="EnxyLS9ktGub7Tj-1Koa-0" vertex="1">
                    <mxGeometry y="26" width="260" height="64" as="geometry"/>
                </mxCell>
                <mxCell id="EnxyLS9ktGub7Tj-1Koa-2" value="" style="line;strokeWidth=1;fillColor=none;align=left;verticalAlign=middle;spacingTop=-1;spacingLeft=3;spacingRight=3;rotatable=0;labelPosition=right;points=[];portConstraint=eastwest;" parent="EnxyLS9ktGub7Tj-1Koa-0" vertex="1">
                    <mxGeometry y="90" width="260" height="8" as="geometry"/>
                </mxCell>
                <mxCell id="EnxyLS9ktGub7Tj-1Koa-3" value="Methods related to moving users:&#10;&#10;void EnvironmentController::UpdateUserLoc&#10;- Main function to move users&#10;&#10;&#10;void EnvironmentController::ECUpdate()&#10;- Calls the UpdateUserLoc function based on&#10;the buffer timer" style="text;strokeColor=none;fillColor=none;align=left;verticalAlign=top;spacingLeft=4;spacingRight=4;overflow=hidden;rotatable=0;points=[[0,0.5],[1,0.5]];portConstraint=eastwest;" parent="EnxyLS9ktGub7Tj-1Koa-0" vertex="1">
                    <mxGeometry y="98" width="260" height="172" as="geometry"/>
                </mxCell>
                <mxCell id="XSKghX5gY0TrOwX5OMg6-0" value="Simulator" style="swimlane;fontStyle=1;align=center;verticalAlign=top;childLayout=stackLayout;horizontal=1;startSize=26;horizontalStack=0;resizeParent=1;resizeParentMax=0;resizeLast=0;collapsible=1;marginBottom=0;fillColor=#008a00;strokeColor=#005700;fontColor=#ffffff;" parent="7WKU14XymeaWdeCZGkRU-1" vertex="1">
                    <mxGeometry x="320" y="80" width="260" height="270" as="geometry"/>
                </mxCell>
                <mxCell id="XSKghX5gY0TrOwX5OMg6-1" value="Purpose:&#10;Modifies REAL user location&#10;as well as calls method to modify user records&#10;on the corresponding BaseStation" style="text;strokeColor=none;fillColor=none;align=left;verticalAlign=top;spacingLeft=4;spacingRight=4;overflow=hidden;rotatable=0;points=[[0,0.5],[1,0.5]];portConstraint=eastwest;" parent="XSKghX5gY0TrOwX5OMg6-0" vertex="1">
                    <mxGeometry y="26" width="260" height="64" as="geometry"/>
                </mxCell>
                <mxCell id="XSKghX5gY0TrOwX5OMg6-2" value="" style="line;strokeWidth=1;fillColor=none;align=left;verticalAlign=middle;spacingTop=-1;spacingLeft=3;spacingRight=3;rotatable=0;labelPosition=right;points=[];portConstraint=eastwest;" parent="XSKghX5gY0TrOwX5OMg6-0" vertex="1">
                    <mxGeometry y="90" width="260" height="8" as="geometry"/>
                </mxCell>
                <mxCell id="XSKghX5gY0TrOwX5OMg6-3" value="Methods related to moving users:&#10;&#10;bool Simulator::moveUE&#10;- Modifies real user location&#10;- Calls BaseStation::moveUE" style="text;strokeColor=none;fillColor=none;align=left;verticalAlign=top;spacingLeft=4;spacingRight=4;overflow=hidden;rotatable=0;points=[[0,0.5],[1,0.5]];portConstraint=eastwest;" parent="XSKghX5gY0TrOwX5OMg6-0" vertex="1">
                    <mxGeometry y="98" width="260" height="172" as="geometry"/>
                </mxCell>
                <mxCell id="n4s8jEsMevqnvgJ0W4-r-0" value="User Mobility GUI Related Classes" style="text;strokeColor=none;fillColor=none;html=1;fontSize=24;fontStyle=1;verticalAlign=middle;align=center;" parent="7WKU14XymeaWdeCZGkRU-1" vertex="1">
                    <mxGeometry x="375" y="440" width="100" height="40" as="geometry"/>
                </mxCell>
                <mxCell id="n4s8jEsMevqnvgJ0W4-r-1" value="Simulator" style="swimlane;fontStyle=1;align=center;verticalAlign=top;childLayout=stackLayout;horizontal=1;startSize=26;horizontalStack=0;resizeParent=1;resizeParentMax=0;resizeLast=0;collapsible=1;marginBottom=0;fillColor=#008a00;strokeColor=#005700;fontColor=#ffffff;" parent="7WKU14XymeaWdeCZGkRU-1" vertex="1">
                    <mxGeometry x="40" y="480" width="260" height="270" as="geometry"/>
                </mxCell>
                <mxCell id="n4s8jEsMevqnvgJ0W4-r-2" value="Purpose:&#10;Set properties related to User Mobility&#10;like usermobility buffer&#10; " style="text;strokeColor=none;fillColor=none;align=left;verticalAlign=top;spacingLeft=4;spacingRight=4;overflow=hidden;rotatable=0;points=[[0,0.5],[1,0.5]];portConstraint=eastwest;" parent="n4s8jEsMevqnvgJ0W4-r-1" vertex="1">
                    <mxGeometry y="26" width="260" height="64" as="geometry"/>
                </mxCell>
                <mxCell id="n4s8jEsMevqnvgJ0W4-r-3" value="" style="line;strokeWidth=1;fillColor=none;align=left;verticalAlign=middle;spacingTop=-1;spacingLeft=3;spacingRight=3;rotatable=0;labelPosition=right;points=[];portConstraint=eastwest;" parent="n4s8jEsMevqnvgJ0W4-r-1" vertex="1">
                    <mxGeometry y="90" width="260" height="8" as="geometry"/>
                </mxCell>
                <mxCell id="n4s8jEsMevqnvgJ0W4-r-4" value="Methods related to moving users:&#10;&#10;Getters / Setters&#10;- For the mobility buffer property" style="text;strokeColor=none;fillColor=none;align=left;verticalAlign=top;spacingLeft=4;spacingRight=4;overflow=hidden;rotatable=0;points=[[0,0.5],[1,0.5]];portConstraint=eastwest;" parent="n4s8jEsMevqnvgJ0W4-r-1" vertex="1">
                    <mxGeometry y="98" width="260" height="172" as="geometry"/>
                </mxCell>
                <mxCell id="IJuKFA-7r6CIy5-B2ZmP-1" value="BaseStation" style="swimlane;fontStyle=1;align=center;verticalAlign=top;childLayout=stackLayout;horizontal=1;startSize=26;horizontalStack=0;resizeParent=1;resizeParentMax=0;resizeLast=0;collapsible=1;marginBottom=0;fillColor=#008a00;strokeColor=#005700;fontColor=#ffffff;" parent="7WKU14XymeaWdeCZGkRU-1" vertex="1">
                    <mxGeometry x="600" y="80" width="250" height="270" as="geometry"/>
                </mxCell>
                <mxCell id="IJuKFA-7r6CIy5-B2ZmP-2" value="Purpose:&#10;Modifies User Equipment Record files on the&#10;BaseStation" style="text;strokeColor=none;fillColor=none;align=left;verticalAlign=top;spacingLeft=4;spacingRight=4;overflow=hidden;rotatable=0;points=[[0,0.5],[1,0.5]];portConstraint=eastwest;" parent="IJuKFA-7r6CIy5-B2ZmP-1" vertex="1">
                    <mxGeometry y="26" width="250" height="64" as="geometry"/>
                </mxCell>
                <mxCell id="IJuKFA-7r6CIy5-B2ZmP-3" value="" style="line;strokeWidth=1;fillColor=none;align=left;verticalAlign=middle;spacingTop=-1;spacingLeft=3;spacingRight=3;rotatable=0;labelPosition=right;points=[];portConstraint=eastwest;" parent="IJuKFA-7r6CIy5-B2ZmP-1" vertex="1">
                    <mxGeometry y="90" width="250" height="8" as="geometry"/>
                </mxCell>
                <mxCell id="IJuKFA-7r6CIy5-B2ZmP-4" value="Methods related to moving users:&#10;&#10;bool BaseStation::moveUE&#10;- Modifies records of user that exists on the&#10;BaseStation" style="text;strokeColor=none;fillColor=none;align=left;verticalAlign=top;spacingLeft=4;spacingRight=4;overflow=hidden;rotatable=0;points=[[0,0.5],[1,0.5]];portConstraint=eastwest;" parent="IJuKFA-7r6CIy5-B2ZmP-1" vertex="1">
                    <mxGeometry y="98" width="250" height="172" as="geometry"/>
                </mxCell>
                <mxCell id="ayeKkhRKrMJokO5zn4J2-0" value="GUIDataContainer" style="swimlane;fontStyle=1;align=center;verticalAlign=top;childLayout=stackLayout;horizontal=1;startSize=26;horizontalStack=0;resizeParent=1;resizeParentMax=0;resizeLast=0;collapsible=1;marginBottom=0;fillColor=#008a00;strokeColor=#005700;fontColor=#ffffff;" parent="7WKU14XymeaWdeCZGkRU-1" vertex="1">
                    <mxGeometry x="320" y="480" width="250" height="270" as="geometry"/>
                </mxCell>
                <mxCell id="ayeKkhRKrMJokO5zn4J2-1" value="Purpose:&#10;Set default values for the simulator" style="text;strokeColor=none;fillColor=none;align=left;verticalAlign=top;spacingLeft=4;spacingRight=4;overflow=hidden;rotatable=0;points=[[0,0.5],[1,0.5]];portConstraint=eastwest;" parent="ayeKkhRKrMJokO5zn4J2-0" vertex="1">
                    <mxGeometry y="26" width="250" height="64" as="geometry"/>
                </mxCell>
                <mxCell id="ayeKkhRKrMJokO5zn4J2-2" value="" style="line;strokeWidth=1;fillColor=none;align=left;verticalAlign=middle;spacingTop=-1;spacingLeft=3;spacingRight=3;rotatable=0;labelPosition=right;points=[];portConstraint=eastwest;" parent="ayeKkhRKrMJokO5zn4J2-0" vertex="1">
                    <mxGeometry y="90" width="250" height="8" as="geometry"/>
                </mxCell>
                <mxCell id="ayeKkhRKrMJokO5zn4J2-3" value="Methods related to moving users:&#10;&#10;None (initilizes values for simulator)" style="text;align=left;verticalAlign=top;spacingLeft=4;spacingRight=4;overflow=hidden;rotatable=0;points=[[0,0.5],[1,0.5]];portConstraint=eastwest;" parent="ayeKkhRKrMJokO5zn4J2-0" vertex="1">
                    <mxGeometry y="98" width="250" height="172" as="geometry"/>
                </mxCell>
                <mxCell id="wcHJfVU4EHm2mVb1dd0r-0" value="GUIMain" style="swimlane;fontStyle=1;align=center;verticalAlign=top;childLayout=stackLayout;horizontal=1;startSize=26;horizontalStack=0;resizeParent=1;resizeParentMax=0;resizeLast=0;collapsible=1;marginBottom=0;fillColor=#008a00;strokeColor=#005700;fontColor=#ffffff;" parent="7WKU14XymeaWdeCZGkRU-1" vertex="1">
                    <mxGeometry x="590" y="481" width="240" height="268" as="geometry"/>
                </mxCell>
                <mxCell id="wcHJfVU4EHm2mVb1dd0r-1" value="Purpose:&#10;Creates GUI simulation application.&#10;Gives options for user to save/&#10;analyze data" style="text;strokeColor=none;fillColor=none;align=left;verticalAlign=top;spacingLeft=4;spacingRight=4;overflow=hidden;rotatable=0;points=[[0,0.5],[1,0.5]];portConstraint=eastwest;" parent="wcHJfVU4EHm2mVb1dd0r-0" vertex="1">
                    <mxGeometry y="26" width="240" height="74" as="geometry"/>
                </mxCell>
                <mxCell id="wcHJfVU4EHm2mVb1dd0r-2" value="" style="line;strokeWidth=1;fillColor=none;align=left;verticalAlign=middle;spacingTop=-1;spacingLeft=3;spacingRight=3;rotatable=0;labelPosition=right;points=[];portConstraint=eastwest;" parent="wcHJfVU4EHm2mVb1dd0r-0" vertex="1">
                    <mxGeometry y="100" width="240" height="8" as="geometry"/>
                </mxCell>
                <mxCell id="wcHJfVU4EHm2mVb1dd0r-3" value="Methods related to moving users:&#10;&#10;drawScatterPlot()&#10;- visualizes user mobility on scatter plot&#10;&#10;&#10;&#10;&#10;&#10;Note: uses GTK library for all GUI" style="text;align=left;verticalAlign=top;spacingLeft=4;spacingRight=4;overflow=hidden;rotatable=0;points=[[0,0.5],[1,0.5]];portConstraint=eastwest;" parent="wcHJfVU4EHm2mVb1dd0r-0" vertex="1">
                    <mxGeometry y="108" width="240" height="160" as="geometry"/>
                </mxCell>
            </root>
        </mxGraphModel>
    </diagram>
    <diagram id="I2elc5N4jdK7L7TSwSpu" name=".csv Output">
        <mxGraphModel dx="1118" dy="779" grid="1" gridSize="10" guides="1" tooltips="1" connect="1" arrows="1" fold="1" page="1" pageScale="1" pageWidth="850" pageHeight="1100" math="0" shadow="0">
            <root>
                <mxCell id="QjopWm3Hr4ZlNNSDy9Cj-0"/>
                <mxCell id="QjopWm3Hr4ZlNNSDy9Cj-1" parent="QjopWm3Hr4ZlNNSDy9Cj-0"/>
                <mxCell id="N5-v-XZQ1slk9fZjQFcA-0" value=".CSV Output Related Classes" style="text;strokeColor=none;fillColor=none;html=1;fontSize=24;fontStyle=1;verticalAlign=middle;align=center;" parent="QjopWm3Hr4ZlNNSDy9Cj-1" vertex="1">
                    <mxGeometry x="375" y="20" width="100" height="40" as="geometry"/>
                </mxCell>
                <mxCell id="N5-v-XZQ1slk9fZjQFcA-1" value="Simulator" style="swimlane;fontStyle=1;align=center;verticalAlign=top;childLayout=stackLayout;horizontal=1;startSize=26;horizontalStack=0;resizeParent=1;resizeParentMax=0;resizeLast=0;collapsible=1;marginBottom=0;fillColor=#008a00;strokeColor=#005700;fontColor=#ffffff;" parent="QjopWm3Hr4ZlNNSDy9Cj-1" vertex="1">
                    <mxGeometry x="40" y="80" width="260" height="270" as="geometry">
                        <mxRectangle x="40" y="80" width="160" height="26" as="alternateBounds"/>
                    </mxGeometry>
                </mxCell>
                <mxCell id="N5-v-XZQ1slk9fZjQFcA-2" value="Purpose:&#10;Calls FileIO::appendLog(sim) to be able to&#10;modfy the .csv file output" style="text;strokeColor=none;fillColor=none;align=left;verticalAlign=top;spacingLeft=4;spacingRight=4;overflow=hidden;rotatable=0;points=[[0,0.5],[1,0.5]];portConstraint=eastwest;" parent="N5-v-XZQ1slk9fZjQFcA-1" vertex="1">
                    <mxGeometry y="26" width="260" height="64" as="geometry"/>
                </mxCell>
                <mxCell id="N5-v-XZQ1slk9fZjQFcA-3" value="" style="line;strokeWidth=1;fillColor=none;align=left;verticalAlign=middle;spacingTop=-1;spacingLeft=3;spacingRight=3;rotatable=0;labelPosition=right;points=[];portConstraint=eastwest;" parent="N5-v-XZQ1slk9fZjQFcA-1" vertex="1">
                    <mxGeometry y="90" width="260" height="8" as="geometry"/>
                </mxCell>
                <mxCell id="N5-v-XZQ1slk9fZjQFcA-4" value="Methods related to CSV output:&#10;&#10;bool Simulator::runSimulation()&#10;" style="text;strokeColor=none;fillColor=none;align=left;verticalAlign=top;spacingLeft=4;spacingRight=4;overflow=hidden;rotatable=0;points=[[0,0.5],[1,0.5]];portConstraint=eastwest;" parent="N5-v-XZQ1slk9fZjQFcA-1" vertex="1">
                    <mxGeometry y="98" width="260" height="172" as="geometry"/>
                </mxCell>
                <mxCell id="N5-v-XZQ1slk9fZjQFcA-5" value="FileIO" style="swimlane;fontStyle=1;align=center;verticalAlign=top;childLayout=stackLayout;horizontal=1;startSize=26;horizontalStack=0;resizeParent=1;resizeParentMax=0;resizeLast=0;collapsible=1;marginBottom=0;fillColor=#008a00;strokeColor=#005700;fontColor=#ffffff;" parent="QjopWm3Hr4ZlNNSDy9Cj-1" vertex="1">
                    <mxGeometry x="360" y="80" width="270" height="270" as="geometry">
                        <mxRectangle x="320" y="80" width="90" height="26" as="alternateBounds"/>
                    </mxGeometry>
                </mxCell>
                <mxCell id="N5-v-XZQ1slk9fZjQFcA-6" value="Purpose:&#10;Calls functions to modify the .csv file using&#10;&lt;fstream&gt; and &lt;iostream&gt; libraries" style="text;strokeColor=none;fillColor=none;align=left;verticalAlign=top;spacingLeft=4;spacingRight=4;overflow=hidden;rotatable=0;points=[[0,0.5],[1,0.5]];portConstraint=eastwest;" parent="N5-v-XZQ1slk9fZjQFcA-5" vertex="1">
                    <mxGeometry y="26" width="270" height="64" as="geometry"/>
                </mxCell>
                <mxCell id="N5-v-XZQ1slk9fZjQFcA-7" value="" style="line;strokeWidth=1;fillColor=none;align=left;verticalAlign=middle;spacingTop=-1;spacingLeft=3;spacingRight=3;rotatable=0;labelPosition=right;points=[];portConstraint=eastwest;" parent="N5-v-XZQ1slk9fZjQFcA-5" vertex="1">
                    <mxGeometry y="90" width="270" height="8" as="geometry"/>
                </mxCell>
                <mxCell id="N5-v-XZQ1slk9fZjQFcA-8" value="Methods related to CSV output:&#10;&#10;bool FileIO::appendLog(const uint32_t&amp; simNum)" style="text;strokeColor=none;fillColor=none;align=left;verticalAlign=top;spacingLeft=4;spacingRight=4;overflow=hidden;rotatable=0;points=[[0,0.5],[1,0.5]];portConstraint=eastwest;" parent="N5-v-XZQ1slk9fZjQFcA-5" vertex="1">
                    <mxGeometry y="98" width="270" height="172" as="geometry"/>
                </mxCell>
            </root>
        </mxGraphModel>
    </diagram>
    <diagram id="5HtfKGqZGtNMgQZpWmyb" name="FileIO">
        <mxGraphModel dx="1118" dy="779" grid="1" gridSize="10" guides="1" tooltips="1" connect="1" arrows="1" fold="1" page="1" pageScale="1" pageWidth="850" pageHeight="1100" math="0" shadow="0">
            <root>
                <mxCell id="DnrRjilun0DflXOTuMBY-0"/>
                <mxCell id="DnrRjilun0DflXOTuMBY-1" parent="DnrRjilun0DflXOTuMBY-0"/>
                <mxCell id="XW7bf8gxI1_v4HExEiaj-0" value="&lt;b&gt;File Streaming&lt;br&gt;https://www.cplusplus.com/reference/fstream/fstream/&lt;br&gt;&lt;/b&gt;&lt;br&gt;&lt;b&gt;Other libraries related to string and type modification&lt;/b&gt;&lt;br&gt;https://www.cplusplus.com/reference/iostream/&lt;br&gt;https://www.cplusplus.com/reference/sstream/&lt;br&gt;http://www.cplusplus.com/reference/utility/&lt;br&gt;http://www.cplusplus.com/reference/map/map/" style="text;html=1;strokeColor=none;fillColor=none;align=left;verticalAlign=middle;whiteSpace=wrap;rounded=0;" parent="DnrRjilun0DflXOTuMBY-1" vertex="1">
                    <mxGeometry x="40" y="40" width="390" height="110" as="geometry"/>
                </mxCell>
            </root>
        </mxGraphModel>
    </diagram>
    <diagram id="C5RBs43oDa-KdzZeNtuy" name="Entire Code (old)">
        <mxGraphModel dx="1315" dy="916" grid="1" gridSize="10" guides="1" tooltips="1" connect="1" arrows="1" fold="1" page="1" pageScale="1" pageWidth="827" pageHeight="1169" math="0" shadow="0">
            <root>
                <mxCell id="WIyWlLk6GJQsqaUBKTNV-0"/>
                <mxCell id="WIyWlLk6GJQsqaUBKTNV-1" parent="WIyWlLk6GJQsqaUBKTNV-0"/>
                <mxCell id="0" style="edgeStyle=orthogonalEdgeStyle;rounded=0;orthogonalLoop=1;jettySize=auto;html=1;exitX=0.75;exitY=1;exitDx=0;exitDy=0;entryX=0;entryY=0.5;entryDx=0;entryDy=0;" parent="WIyWlLk6GJQsqaUBKTNV-1" source="2" target="22" edge="1">
                    <mxGeometry relative="1" as="geometry"/>
                </mxCell>
                <mxCell id="1" style="edgeStyle=orthogonalEdgeStyle;rounded=0;orthogonalLoop=1;jettySize=auto;html=1;exitX=0.25;exitY=1;exitDx=0;exitDy=0;entryX=0.75;entryY=0;entryDx=0;entryDy=0;" parent="WIyWlLk6GJQsqaUBKTNV-1" source="2" target="23" edge="1">
                    <mxGeometry relative="1" as="geometry"/>
                </mxCell>
                <mxCell id="2" value="Main.cpp" style="swimlane;fontStyle=1;align=center;verticalAlign=top;childLayout=stackLayout;horizontal=1;startSize=26;horizontalStack=0;resizeParent=1;resizeParentMax=0;resizeLast=0;collapsible=1;marginBottom=0;fillColor=#d5e8d4;strokeColor=#82b366;" parent="WIyWlLk6GJQsqaUBKTNV-1" vertex="1">
                    <mxGeometry x="580" y="160" width="260" height="170" as="geometry"/>
                </mxCell>
                <mxCell id="3" value="+ std::string programPath&#10;+ std::filePath" style="text;strokeColor=none;fillColor=none;align=left;verticalAlign=top;spacingLeft=4;spacingRight=4;overflow=hidden;rotatable=0;points=[[0,0.5],[1,0.5]];portConstraint=eastwest;" parent="2" vertex="1">
                    <mxGeometry y="26" width="260" height="34" as="geometry"/>
                </mxCell>
                <mxCell id="4" value="" style="line;strokeWidth=1;fillColor=none;align=left;verticalAlign=middle;spacingTop=-1;spacingLeft=3;spacingRight=3;rotatable=0;labelPosition=right;points=[];portConstraint=eastwest;" parent="2" vertex="1">
                    <mxGeometry y="60" width="260" height="8" as="geometry"/>
                </mxCell>
                <mxCell id="5" value="+ int main(int, char**)&#10;+ bool initializeEnvironmentTerminal()&#10;+ bool openFromFile()&#10;+ bool saveToFile()&#10;+ environmentTick()&#10;+ runSimulation(int, int)" style="text;strokeColor=none;fillColor=none;align=left;verticalAlign=top;spacingLeft=4;spacingRight=4;overflow=hidden;rotatable=0;points=[[0,0.5],[1,0.5]];portConstraint=eastwest;" parent="2" vertex="1">
                    <mxGeometry y="68" width="260" height="102" as="geometry"/>
                </mxCell>
                <mxCell id="6" style="edgeStyle=orthogonalEdgeStyle;rounded=0;orthogonalLoop=1;jettySize=auto;html=1;exitX=0.75;exitY=1;exitDx=0;exitDy=0;entryX=0.5;entryY=0;entryDx=0;entryDy=0;" parent="WIyWlLk6GJQsqaUBKTNV-1" source="9" target="61" edge="1">
                    <mxGeometry relative="1" as="geometry"/>
                </mxCell>
                <mxCell id="7" style="edgeStyle=orthogonalEdgeStyle;rounded=0;orthogonalLoop=1;jettySize=auto;html=1;exitX=0.25;exitY=1;exitDx=0;exitDy=0;entryX=0.5;entryY=0;entryDx=0;entryDy=0;" parent="WIyWlLk6GJQsqaUBKTNV-1" source="9" target="37" edge="1">
                    <mxGeometry relative="1" as="geometry"/>
                </mxCell>
                <mxCell id="8" style="edgeStyle=orthogonalEdgeStyle;rounded=0;orthogonalLoop=1;jettySize=auto;html=1;exitX=0;exitY=0.75;exitDx=0;exitDy=0;entryX=0.5;entryY=0;entryDx=0;entryDy=0;" parent="WIyWlLk6GJQsqaUBKTNV-1" source="9" target="56" edge="1">
                    <mxGeometry relative="1" as="geometry">
                        <Array as="points">
                            <mxPoint x="605" y="757"/>
                            <mxPoint x="360" y="757"/>
                            <mxPoint x="360" y="880"/>
                            <mxPoint x="160" y="880"/>
                        </Array>
                    </mxGeometry>
                </mxCell>
                <mxCell id="9" value="GlobalVar.h" style="swimlane;fontStyle=1;align=center;verticalAlign=top;childLayout=stackLayout;horizontal=1;startSize=26;horizontalStack=0;resizeParent=1;resizeParentMax=0;resizeLast=0;collapsible=1;marginBottom=0;fillColor=#d5e8d4;strokeColor=#82b366;" parent="WIyWlLk6GJQsqaUBKTNV-1" vertex="1">
                    <mxGeometry x="604.5" y="510" width="260" height="330" as="geometry"/>
                </mxCell>
                <mxCell id="10" value="+ AreaUnit** env&#10;+ BaseStation* BaseStationList&#10;+ UserEquipment* UserEquipmentList&#10;+ int row&#10;+ int col&#10;+ int numberOfBaseStations&#10;+ int numberOfUsers&#10;+ int objectCount&#10;+ int envClock&#10;+ int shapeSideLength&#10;+ int numberOfAntenna&#10;+ int numberOfTranceivers&#10;+ double distanceBetweenTranceivers&#10;+ int UEmaxDataRate&#10;+ int BSmaxDataRate&#10;+ int logCount&#10;+ long int logRowCount&#10;+ int simulationLength&#10;+ int numberOfSimulations&#10;+ int simulationStartNum&#10;+ std::string saveName" style="text;strokeColor=none;fillColor=none;align=left;verticalAlign=top;spacingLeft=4;spacingRight=4;overflow=hidden;rotatable=0;points=[[0,0.5],[1,0.5]];portConstraint=eastwest;" parent="9" vertex="1">
                    <mxGeometry y="26" width="260" height="304" as="geometry"/>
                </mxCell>
                <mxCell id="11" value="NewEnvironmentInitialization.h" style="swimlane;fontStyle=1;align=center;verticalAlign=top;childLayout=stackLayout;horizontal=1;startSize=26;horizontalStack=0;resizeParent=1;resizeParentMax=0;resizeLast=0;collapsible=1;marginBottom=0;fillColor=#d5e8d4;strokeColor=#82b366;" parent="WIyWlLk6GJQsqaUBKTNV-1" vertex="1">
                    <mxGeometry x="40" y="40" width="370" height="490" as="geometry"/>
                </mxCell>
                <mxCell id="12" value="+ int shapeRow&#10;+ int shapeCol&#10;+ int middleRow&#10;+ int middleCol&#10;+ envT envTemplate&#10;+ std::vector&lt;Coord&gt; BaseStationLocations&#10;" style="text;strokeColor=none;fillColor=none;align=left;verticalAlign=top;spacingLeft=4;spacingRight=4;overflow=hidden;rotatable=0;points=[[0,0.5],[1,0.5]];portConstraint=eastwest;" parent="11" vertex="1">
                    <mxGeometry y="26" width="370" height="94" as="geometry"/>
                </mxCell>
                <mxCell id="13" value="" style="line;strokeWidth=1;fillColor=none;align=left;verticalAlign=middle;spacingTop=-1;spacingLeft=3;spacingRight=3;rotatable=0;labelPosition=right;points=[];portConstraint=eastwest;" parent="11" vertex="1">
                    <mxGeometry y="120" width="370" height="10" as="geometry"/>
                </mxCell>
                <mxCell id="14" value="+ bool newENV::hexagonGenerator(Shape&amp;)&#10;+ bool newENV::hexagonSymbolAdd(Shape&amp;)&#10;+ bool newENV::createFirstShape(Shape, envT&amp;, &#10;           std::vector&lt;Coord&gt;&amp;)&#10;+ bool newENV::adjustTemplateSize(Coord&amp;, Coord&amp;, Coord&amp;,&#10;           Shape, envT&amp;, std::vector&lt;Coord&gt;&amp;)&#10;+ bool newENV::addShape(Shape, Coord&amp;, Coord&amp;, Coord&amp;, &#10;           Shape, envT&amp;, std::vector&lt;Coord&gt;&amp;)&#10;+ bool newENV::setBSMaxDataRate()&#10;+ bool newENV::setCongestedUsers()&#10;+ bool newENV::instantiateUsers()&#10;+ bool newENV::terminalENVCreation::getSideLengthFromUser()&#10;+ void newENV::terminalENVCreation::renderEnvTemplate(envT&amp;)&#10;+ bool newENV::terminalENVCreation::createTemplate(envT&amp;, &#10;           std::vector&lt;Coord&gt;&amp;, Shape&amp;)&#10;+ bool newENV::terminalENVCreation::getAntennaInfoFromUser()&#10;+ bool newENV::terminalENVCreation::setBSConditions()&#10;+ bool newENV::terminalENVCreation::setDataRates()&#10;+ bool newENV::terminalENVCreation::setSimulationParameters()&#10;+ bool newENV::terminalENVCreation::getSaveName()&#10;+ bool newENV::terminalENVCreation::generateNewENV()&#10;+ bool newENV::GUIEnvCreation::createTemplate(envT, &#10;           std::vector&lt;Coord&gt;&amp;, Shape&amp;, Coord*)&#10;+ bool newENV::GUIEnvCreation::setDefaultUsers(int)&#10;+ bool newENV::GUIEnvCreation::generateNewENV(int, char**)" style="text;strokeColor=none;fillColor=none;align=left;verticalAlign=top;spacingLeft=4;spacingRight=4;overflow=hidden;rotatable=0;points=[[0,0.5],[1,0.5]];portConstraint=eastwest;" parent="11" vertex="1">
                    <mxGeometry y="130" width="370" height="360" as="geometry"/>
                </mxCell>
                <mxCell id="15" value="ShapeUnit" style="swimlane;fontStyle=0;childLayout=stackLayout;horizontal=1;startSize=26;fillColor=#008a00;horizontalStack=0;resizeParent=1;resizeParentMax=0;resizeLast=0;collapsible=1;marginBottom=0;strokeColor=#005700;fontColor=#ffffff;" parent="WIyWlLk6GJQsqaUBKTNV-1" vertex="1">
                    <mxGeometry x="494" y="50" width="116" height="70" as="geometry"/>
                </mxCell>
                <mxCell id="16" value="+ char sym&#10;+ bool b" style="text;strokeColor=none;fillColor=none;align=left;verticalAlign=top;spacingLeft=4;spacingRight=4;overflow=hidden;rotatable=0;points=[[0,0.5],[1,0.5]];portConstraint=eastwest;" parent="15" vertex="1">
                    <mxGeometry y="26" width="116" height="44" as="geometry"/>
                </mxCell>
                <mxCell id="17" style="edgeStyle=orthogonalEdgeStyle;rounded=0;orthogonalLoop=1;jettySize=auto;html=1;exitX=0;exitY=0.25;exitDx=0;exitDy=0;" parent="WIyWlLk6GJQsqaUBKTNV-1" source="18" target="12" edge="1">
                    <mxGeometry relative="1" as="geometry">
                        <Array as="points">
                            <mxPoint x="980" y="150"/>
                        </Array>
                    </mxGeometry>
                </mxCell>
                <mxCell id="18" value="UserIO.h" style="swimlane;fontStyle=1;align=center;verticalAlign=top;childLayout=stackLayout;horizontal=1;startSize=26;horizontalStack=0;resizeParent=1;resizeParentMax=0;resizeLast=0;collapsible=1;marginBottom=0;fillColor=#d5e8d4;strokeColor=#82b366;" parent="WIyWlLk6GJQsqaUBKTNV-1" vertex="1">
                    <mxGeometry x="979.5" y="99.5" width="290" height="190" as="geometry"/>
                </mxCell>
                <mxCell id="19" value="+ int numberOfDigits(int)&#10;+ void printBaseStation(BaseStation*)&#10;+ void printAreaUnit(AreaUnit*)&#10;+ void printBaseStationWithoutRegion(BaseStation*)&#10;+ bool userInput(vector&lt;T&gt;, const char[])&#10;+ bool userInput(vector&lt;T&gt;)&#10;+ bool userInput(T*)&#10;+ void renderEnvSym()&#10;+ void renderEnvSymWithUsers()&#10;+ void renderBaseStationRegionsByAntenna()" style="text;strokeColor=none;fillColor=none;align=left;verticalAlign=top;spacingLeft=4;spacingRight=4;overflow=hidden;rotatable=0;points=[[0,0.5],[1,0.5]];portConstraint=eastwest;" parent="18" vertex="1">
                    <mxGeometry y="26" width="290" height="164" as="geometry"/>
                </mxCell>
                <mxCell id="20" style="edgeStyle=orthogonalEdgeStyle;rounded=0;orthogonalLoop=1;jettySize=auto;html=1;exitX=0.5;exitY=0;exitDx=0;exitDy=0;entryX=0.383;entryY=1;entryDx=0;entryDy=0;entryPerimeter=0;" parent="WIyWlLk6GJQsqaUBKTNV-1" source="21" target="19" edge="1">
                    <mxGeometry relative="1" as="geometry"/>
                </mxCell>
                <mxCell id="21" value="DebugTools.h" style="swimlane;fontStyle=1;align=center;verticalAlign=top;childLayout=stackLayout;horizontal=1;startSize=26;horizontalStack=0;resizeParent=1;resizeParentMax=0;resizeLast=0;collapsible=1;marginBottom=0;fillColor=#d5e8d4;strokeColor=#82b366;" parent="WIyWlLk6GJQsqaUBKTNV-1" vertex="1">
                    <mxGeometry x="889.5" y="382.5" width="180" height="52" as="geometry"/>
                </mxCell>
                <mxCell id="22" value="+bool environmentDiagnostic()" style="text;strokeColor=none;fillColor=none;align=left;verticalAlign=top;spacingLeft=4;spacingRight=4;overflow=hidden;rotatable=0;points=[[0,0.5],[1,0.5]];portConstraint=eastwest;" parent="21" vertex="1">
                    <mxGeometry y="26" width="180" height="26" as="geometry"/>
                </mxCell>
                <mxCell id="23" value="FileIO.h" style="swimlane;fontStyle=1;align=center;verticalAlign=top;childLayout=stackLayout;horizontal=1;startSize=26;horizontalStack=0;resizeParent=1;resizeParentMax=0;resizeLast=0;collapsible=1;marginBottom=0;fillColor=#d5e8d4;strokeColor=#82b366;" parent="WIyWlLk6GJQsqaUBKTNV-1" vertex="1">
                    <mxGeometry x="479.5" y="380.5" width="220" height="82" as="geometry"/>
                </mxCell>
                <mxCell id="24" value="+ bool writeSaveFileFromENV(string)&#10;+ bool readSaveFileToENV(string)&#10;+ bool appendLog(string, int)" style="text;strokeColor=none;fillColor=none;align=left;verticalAlign=top;spacingLeft=4;spacingRight=4;overflow=hidden;rotatable=0;points=[[0,0.5],[1,0.5]];portConstraint=eastwest;" parent="23" vertex="1">
                    <mxGeometry y="26" width="220" height="56" as="geometry"/>
                </mxCell>
                <mxCell id="25" style="edgeStyle=orthogonalEdgeStyle;rounded=0;orthogonalLoop=1;jettySize=auto;html=1;exitX=0.75;exitY=0;exitDx=0;exitDy=0;entryX=0;entryY=0.5;entryDx=0;entryDy=0;" parent="WIyWlLk6GJQsqaUBKTNV-1" source="27" target="95" edge="1">
                    <mxGeometry relative="1" as="geometry"/>
                </mxCell>
                <mxCell id="26" style="edgeStyle=orthogonalEdgeStyle;rounded=0;orthogonalLoop=1;jettySize=auto;html=1;exitX=0.5;exitY=1;exitDx=0;exitDy=0;entryX=0.5;entryY=0;entryDx=0;entryDy=0;" parent="WIyWlLk6GJQsqaUBKTNV-1" source="27" target="89" edge="1">
                    <mxGeometry relative="1" as="geometry"/>
                </mxCell>
                <mxCell id="27" value="Antenna" style="swimlane;fontStyle=1;align=center;verticalAlign=top;childLayout=stackLayout;horizontal=1;startSize=26;horizontalStack=0;resizeParent=1;resizeParentMax=0;resizeLast=0;collapsible=1;marginBottom=0;fillColor=#f8cecc;strokeColor=#b85450;" parent="WIyWlLk6GJQsqaUBKTNV-1" vertex="1">
                    <mxGeometry x="400" y="1730.5" width="270" height="380" as="geometry">
                        <mxRectangle x="400" y="1730.5" width="80" height="26" as="alternateBounds"/>
                    </mxGeometry>
                </mxCell>
                <mxCell id="28" value="# CoordF loc&#10;# int dataRate&#10;# float antAngle&#10;# Signals outgoingSignals&#10;# TransceiverList manifest&#10;# PacketBundle outgoingPackets&#10;&#10;" style="text;strokeColor=none;fillColor=none;align=left;verticalAlign=top;spacingLeft=4;spacingRight=4;overflow=hidden;rotatable=0;points=[[0,0.5],[1,0.5]];portConstraint=eastwest;" parent="27" vertex="1">
                    <mxGeometry y="26" width="270" height="94" as="geometry"/>
                </mxCell>
                <mxCell id="29" value="" style="line;strokeWidth=1;fillColor=none;align=left;verticalAlign=middle;spacingTop=-1;spacingLeft=3;spacingRight=3;rotatable=0;labelPosition=right;points=[];portConstraint=eastwest;" parent="27" vertex="1">
                    <mxGeometry y="120" width="270" height="8" as="geometry"/>
                </mxCell>
                <mxCell id="30" value="+ Antenna()&#10;+ void initialize()&#10;+ void setExactYX(float Y, float X)&#10;+ void setAngle(float theta)&#10;+ float getAngle()&#10;+ int getY()&#10;+ int getX()&#10;+ float getExactY()&#10;+ float getExactX()&#10;+ int getDataRate()&#10;+ void createSignalsFromOutgoingPackets()&#10;+ void addPacket(const Packet&amp; p)&#10;+ Signals* getOutgoingSignals()&#10;+ TransceiverList* getManifest()&#10;+ void clearOutgoingBuffer()&#10;+ void clearOutgoingSignals()&#10;+ void sendData()&#10;" style="text;strokeColor=none;fillColor=none;align=left;verticalAlign=top;spacingLeft=4;spacingRight=4;overflow=hidden;rotatable=0;points=[[0,0.5],[1,0.5]];portConstraint=eastwest;" parent="27" vertex="1">
                    <mxGeometry y="128" width="270" height="252" as="geometry"/>
                </mxCell>
                <mxCell id="31" value="Transceiver" style="swimlane;fontStyle=1;align=center;verticalAlign=top;childLayout=stackLayout;horizontal=1;startSize=26;horizontalStack=0;resizeParent=1;resizeParentMax=0;resizeLast=0;collapsible=1;marginBottom=0;fillColor=#f8cecc;strokeColor=#b85450;" parent="WIyWlLk6GJQsqaUBKTNV-1" vertex="1">
                    <mxGeometry x="750" y="2170" width="390" height="280" as="geometry"/>
                </mxCell>
                <mxCell id="32" value="# int transceiverID&#10;# float exactY, exactX&#10;# float theta&#10;# float antTheta&#10;# UserEquipment* user&#10;" style="text;strokeColor=none;fillColor=none;align=left;verticalAlign=top;spacingLeft=4;spacingRight=4;overflow=hidden;rotatable=0;points=[[0,0.5],[1,0.5]];portConstraint=eastwest;" parent="31" vertex="1">
                    <mxGeometry y="26" width="390" height="84" as="geometry"/>
                </mxCell>
                <mxCell id="33" value="" style="line;strokeWidth=1;fillColor=none;align=left;verticalAlign=middle;spacingTop=-1;spacingLeft=3;spacingRight=3;rotatable=0;labelPosition=right;points=[];portConstraint=eastwest;" parent="31" vertex="1">
                    <mxGeometry y="110" width="390" height="8" as="geometry"/>
                </mxCell>
                <mxCell id="34" value="+ Transceiver()&#10;+ int getTransceiverID()&#10;+ float getExactY()&#10;+ float getExactX()&#10;+ float getAntTheta()&#10;+ void initializeTransceiver(float y, float x, int ID, float antTheta)&#10;+ float getTheta()&#10;+ void setUser(UserEquipment* user)&#10;+ UserEquipment* getUser()&#10;+ bool sendSignal(Signal* S)&#10;" style="text;strokeColor=none;fillColor=none;align=left;verticalAlign=top;spacingLeft=4;spacingRight=4;overflow=hidden;rotatable=0;points=[[0,0.5],[1,0.5]];portConstraint=eastwest;" parent="31" vertex="1">
                    <mxGeometry y="118" width="390" height="162" as="geometry"/>
                </mxCell>
                <mxCell id="35" style="edgeStyle=orthogonalEdgeStyle;rounded=0;orthogonalLoop=1;jettySize=auto;html=1;exitX=0.5;exitY=1;exitDx=0;exitDy=0;entryX=0.5;entryY=0;entryDx=0;entryDy=0;" parent="WIyWlLk6GJQsqaUBKTNV-1" source="37" target="42" edge="1">
                    <mxGeometry relative="1" as="geometry"/>
                </mxCell>
                <mxCell id="36" style="edgeStyle=orthogonalEdgeStyle;rounded=0;orthogonalLoop=1;jettySize=auto;html=1;exitX=0.75;exitY=1;exitDx=0;exitDy=0;entryX=0.002;entryY=0.125;entryDx=0;entryDy=0;entryPerimeter=0;" parent="WIyWlLk6GJQsqaUBKTNV-1" source="37" target="95" edge="1">
                    <mxGeometry relative="1" as="geometry">
                        <Array as="points">
                            <mxPoint x="580" y="1200"/>
                            <mxPoint x="740" y="1200"/>
                            <mxPoint x="740" y="1670"/>
                        </Array>
                    </mxGeometry>
                </mxCell>
                <mxCell id="37" value="UserEquipment&#10;" style="swimlane;fontStyle=1;align=center;verticalAlign=top;childLayout=stackLayout;horizontal=1;startSize=26;horizontalStack=0;resizeParent=1;resizeParentMax=0;resizeLast=0;collapsible=1;marginBottom=0;fillColor=#1ba1e2;strokeColor=#006EAF;fontColor=#ffffff;" parent="WIyWlLk6GJQsqaUBKTNV-1" vertex="1">
                    <mxGeometry x="400" y="920" width="240" height="250" as="geometry">
                        <mxRectangle x="160" y="800" width="120" height="26" as="alternateBounds"/>
                    </mxGeometry>
                </mxCell>
                <mxCell id="38" value="# int objID&#10;# int userID&#10;# int y, x&#10;# Signals dataReceived;" style="text;strokeColor=none;fillColor=none;align=left;verticalAlign=top;spacingLeft=4;spacingRight=4;overflow=hidden;rotatable=0;points=[[0,0.5],[1,0.5]];portConstraint=eastwest;" parent="37" vertex="1">
                    <mxGeometry y="26" width="240" height="64" as="geometry"/>
                </mxCell>
                <mxCell id="39" value="" style="line;strokeWidth=1;fillColor=none;align=left;verticalAlign=middle;spacingTop=-1;spacingLeft=3;spacingRight=3;rotatable=0;labelPosition=right;points=[];portConstraint=eastwest;" parent="37" vertex="1">
                    <mxGeometry y="90" width="240" height="8" as="geometry"/>
                </mxCell>
                <mxCell id="40" value="+ int getObjID()&#10;+ int getUserID()&#10;+ int getX()&#10;+ int getY()&#10;+ void initializeUserEquipment(int,int,int,int)&#10;+ void receiveData(Signal)&#10;+ void setYX(int,int)&#10;+ void setObjID(int)&#10;+ void setUserID(int)&#10;+ bool Update()" style="text;strokeColor=none;fillColor=none;align=left;verticalAlign=top;spacingLeft=4;spacingRight=4;overflow=hidden;rotatable=0;points=[[0,0.5],[1,0.5]];portConstraint=eastwest;" parent="37" vertex="1">
                    <mxGeometry y="98" width="240" height="152" as="geometry"/>
                </mxCell>
                <mxCell id="41" style="edgeStyle=orthogonalEdgeStyle;rounded=0;orthogonalLoop=1;jettySize=auto;html=1;exitX=0.5;exitY=1;exitDx=0;exitDy=0;entryX=0.5;entryY=0;entryDx=0;entryDy=0;" parent="WIyWlLk6GJQsqaUBKTNV-1" source="42" target="46" edge="1">
                    <mxGeometry relative="1" as="geometry"/>
                </mxCell>
                <mxCell id="42" value="Signal&#10;" style="swimlane;fontStyle=1;align=center;verticalAlign=top;childLayout=stackLayout;horizontal=1;startSize=26;horizontalStack=0;resizeParent=1;resizeParentMax=0;resizeLast=0;collapsible=1;marginBottom=0;fillColor=#1ba1e2;strokeColor=#006EAF;fontColor=#ffffff;" parent="WIyWlLk6GJQsqaUBKTNV-1" vertex="1">
                    <mxGeometry x="400" y="1240" width="240" height="200" as="geometry"/>
                </mxCell>
                <mxCell id="43" value="# int signalStrength&#10;# int frequency&#10;# Packet data" style="text;strokeColor=none;fillColor=none;align=left;verticalAlign=top;spacingLeft=4;spacingRight=4;overflow=hidden;rotatable=0;points=[[0,0.5],[1,0.5]];portConstraint=eastwest;" parent="42" vertex="1">
                    <mxGeometry y="26" width="240" height="54" as="geometry"/>
                </mxCell>
                <mxCell id="44" value="" style="line;strokeWidth=1;fillColor=none;align=left;verticalAlign=middle;spacingTop=-1;spacingLeft=3;spacingRight=3;rotatable=0;labelPosition=right;points=[];portConstraint=eastwest;" parent="42" vertex="1">
                    <mxGeometry y="80" width="240" height="8" as="geometry"/>
                </mxCell>
                <mxCell id="45" value="+ Signal(Packet data)&#10;+ void setSignalStrength(int sStren)&#10;+ void setFrequency(int freq)&#10;+ void setData(Packet dat)&#10;+ int getSignalStrength()&#10;+ int getFrequency()&#10;+ Packet getData()" style="text;strokeColor=none;fillColor=none;align=left;verticalAlign=top;spacingLeft=4;spacingRight=4;overflow=hidden;rotatable=0;points=[[0,0.5],[1,0.5]];portConstraint=eastwest;" parent="42" vertex="1">
                    <mxGeometry y="88" width="240" height="112" as="geometry"/>
                </mxCell>
                <mxCell id="46" value="Transmission" style="swimlane;fontStyle=1;align=center;verticalAlign=top;childLayout=stackLayout;horizontal=1;startSize=26;horizontalStack=0;resizeParent=1;resizeParentMax=0;resizeLast=0;collapsible=1;marginBottom=0;fillColor=#1ba1e2;strokeColor=#006EAF;fontColor=#ffffff;" parent="WIyWlLk6GJQsqaUBKTNV-1" vertex="1">
                    <mxGeometry x="400" y="1500" width="240" height="170" as="geometry">
                        <mxRectangle x="400" y="1500" width="100" height="26" as="alternateBounds"/>
                    </mxGeometry>
                </mxCell>
                <mxCell id="47" value="# int sender&#10;# int destination&#10;# int ant, tr" style="text;strokeColor=none;fillColor=none;align=left;verticalAlign=top;spacingLeft=4;spacingRight=4;overflow=hidden;rotatable=0;points=[[0,0.5],[1,0.5]];portConstraint=eastwest;" parent="46" vertex="1">
                    <mxGeometry y="26" width="240" height="54" as="geometry"/>
                </mxCell>
                <mxCell id="48" value="" style="line;strokeWidth=1;fillColor=none;align=left;verticalAlign=middle;spacingTop=-1;spacingLeft=3;spacingRight=3;rotatable=0;labelPosition=right;points=[];portConstraint=eastwest;" parent="46" vertex="1">
                    <mxGeometry y="80" width="240" height="8" as="geometry"/>
                </mxCell>
                <mxCell id="49" value="+ void operator=(const Packet&amp; p)&#10;+ Packet()&#10;+ Packet(const Packet &amp;p)&#10;+ Packet(int sendr, int destin)&#10;+ Packet(int sendr, int destin, int an, int t)" style="text;strokeColor=none;fillColor=none;align=left;verticalAlign=top;spacingLeft=4;spacingRight=4;overflow=hidden;rotatable=0;points=[[0,0.5],[1,0.5]];portConstraint=eastwest;" parent="46" vertex="1">
                    <mxGeometry y="88" width="240" height="82" as="geometry"/>
                </mxCell>
                <mxCell id="50" value="UErecord" style="swimlane;fontStyle=1;align=center;verticalAlign=top;childLayout=stackLayout;horizontal=1;startSize=26;horizontalStack=0;resizeParent=1;resizeParentMax=0;resizeLast=0;collapsible=1;marginBottom=0;fillColor=#FF99FF;" parent="WIyWlLk6GJQsqaUBKTNV-1" vertex="1">
                    <mxGeometry x="40" y="1670" width="240" height="160" as="geometry"/>
                </mxCell>
                <mxCell id="51" value="+ int userID&#10;+ int antenna&#10;+ int currentTranceiver&#10;+ int dataRate&#10;+ int packetsSent" style="text;strokeColor=none;fillColor=none;align=left;verticalAlign=top;spacingLeft=4;spacingRight=4;overflow=hidden;rotatable=0;points=[[0,0.5],[1,0.5]];portConstraint=eastwest;" parent="50" vertex="1">
                    <mxGeometry y="26" width="240" height="84" as="geometry"/>
                </mxCell>
                <mxCell id="52" value="" style="line;strokeWidth=1;fillColor=none;align=left;verticalAlign=middle;spacingTop=-1;spacingLeft=3;spacingRight=3;rotatable=0;labelPosition=right;points=[];portConstraint=eastwest;" parent="50" vertex="1">
                    <mxGeometry y="110" width="240" height="8" as="geometry"/>
                </mxCell>
                <mxCell id="53" value="+ UERecord()&#10;+ UERecord(int,int,int,int,int)" style="text;strokeColor=none;fillColor=none;align=left;verticalAlign=top;spacingLeft=4;spacingRight=4;overflow=hidden;rotatable=0;points=[[0,0.5],[1,0.5]];portConstraint=eastwest;" parent="50" vertex="1">
                    <mxGeometry y="118" width="240" height="42" as="geometry"/>
                </mxCell>
                <mxCell id="54" style="edgeStyle=orthogonalEdgeStyle;rounded=0;orthogonalLoop=1;jettySize=auto;html=1;exitX=0.75;exitY=1;exitDx=0;exitDy=0;entryX=0;entryY=0.5;entryDx=0;entryDy=0;" parent="WIyWlLk6GJQsqaUBKTNV-1" source="56" target="28" edge="1">
                    <mxGeometry relative="1" as="geometry">
                        <Array as="points">
                            <mxPoint x="220" y="1400"/>
                            <mxPoint x="330" y="1400"/>
                            <mxPoint x="330" y="1803"/>
                        </Array>
                    </mxGeometry>
                </mxCell>
                <mxCell id="55" style="edgeStyle=orthogonalEdgeStyle;rounded=0;orthogonalLoop=1;jettySize=auto;html=1;exitX=0.5;exitY=1;exitDx=0;exitDy=0;entryX=0.5;entryY=0;entryDx=0;entryDy=0;" parent="WIyWlLk6GJQsqaUBKTNV-1" source="56" target="75" edge="1">
                    <mxGeometry relative="1" as="geometry"/>
                </mxCell>
                <mxCell id="56" value="BaseStation" style="swimlane;fontStyle=1;align=center;verticalAlign=top;childLayout=stackLayout;horizontal=1;startSize=26;horizontalStack=0;resizeParent=1;resizeParentMax=0;resizeLast=0;collapsible=1;marginBottom=0;fillColor=#FF99FF;" parent="WIyWlLk6GJQsqaUBKTNV-1" vertex="1">
                    <mxGeometry x="40" y="920" width="240" height="460" as="geometry"/>
                </mxCell>
                <mxCell id="57" value="# int objID&#10;# int y&#10;# int x&#10;# int maxDatarate&#10;# int dataRate&#10;# BSstatus condition&#10;# Region bsRegion&#10;# UEDataBase userRecords&#10;# Antenna* MIMOs&#10;" style="text;strokeColor=none;fillColor=none;align=left;verticalAlign=top;spacingLeft=4;spacingRight=4;overflow=hidden;rotatable=0;points=[[0,0.5],[1,0.5]];portConstraint=eastwest;" parent="56" vertex="1">
                    <mxGeometry y="26" width="240" height="134" as="geometry"/>
                </mxCell>
                <mxCell id="58" value="" style="line;strokeWidth=1;fillColor=none;align=left;verticalAlign=middle;spacingTop=-1;spacingLeft=3;spacingRight=3;rotatable=0;labelPosition=right;points=[];portConstraint=eastwest;" parent="56" vertex="1">
                    <mxGeometry y="160" width="240" height="8" as="geometry"/>
                </mxCell>
                <mxCell id="59" value="+BaseStation()&#10;+void InitializeDefaults(int,int,int)&#10;+ void setObjID(int)&#10;+ void setYX(int,int)&#10;+ void setCondition(BSstatus)&#10;+ void setMaxDataRate(int)&#10;+ int setObjID()&#10;+ int getY()&#10;+ int getX()&#10;+ BSstatus getCondition()&#10;+ int getMaxDataRate()&#10;+ int getDataRate()&#10;+ void addToRegion(int,int)&#10;+ Coord getRegionUnit(int)&#10;+ int getRegionSize()&#10;+ Antenna* getAntennaList()&#10;+ UEDataBase* getUEDB()&#10;+ PacketBundle&amp; getOutgoingBuffer()&#10;+ void sendOutgoingBuffer(PacketBundle)&#10;" style="text;strokeColor=none;fillColor=none;align=left;verticalAlign=top;spacingLeft=4;spacingRight=4;overflow=hidden;rotatable=0;points=[[0,0.5],[1,0.5]];portConstraint=eastwest;" parent="56" vertex="1">
                    <mxGeometry y="168" width="240" height="292" as="geometry"/>
                </mxCell>
                <mxCell id="60" style="edgeStyle=orthogonalEdgeStyle;rounded=0;orthogonalLoop=1;jettySize=auto;html=1;exitX=0.5;exitY=1;exitDx=0;exitDy=0;entryX=0.5;entryY=0;entryDx=0;entryDy=0;" parent="WIyWlLk6GJQsqaUBKTNV-1" source="61" target="103" edge="1">
                    <mxGeometry relative="1" as="geometry"/>
                </mxCell>
                <mxCell id="61" value="AreaUnit" style="swimlane;fontStyle=1;align=center;verticalAlign=top;childLayout=stackLayout;horizontal=1;startSize=26;horizontalStack=0;resizeParent=1;resizeParentMax=0;resizeLast=0;collapsible=1;marginBottom=0;fillColor=#76608a;strokeColor=#432D57;fontColor=#ffffff;" parent="WIyWlLk6GJQsqaUBKTNV-1" vertex="1">
                    <mxGeometry x="769.5" y="922.5" width="330" height="520" as="geometry"/>
                </mxCell>
                <mxCell id="62" value="# int objID&#10;# int y&#10;# int x&#10;# int environmentFactor&#10;# char symbol&#10;# bool isCovered&#10;# bool hasNode&#10;# DeviceList users&#10;" style="text;strokeColor=none;fillColor=none;align=left;verticalAlign=top;spacingLeft=4;spacingRight=4;overflow=hidden;rotatable=0;points=[[0,0.5],[1,0.5]];portConstraint=eastwest;" parent="61" vertex="1">
                    <mxGeometry y="26" width="330" height="124" as="geometry"/>
                </mxCell>
                <mxCell id="63" value="" style="line;strokeWidth=1;fillColor=none;align=left;verticalAlign=middle;spacingTop=-1;spacingLeft=3;spacingRight=3;rotatable=0;labelPosition=right;points=[];portConstraint=eastwest;" parent="61" vertex="1">
                    <mxGeometry y="150" width="330" height="8" as="geometry"/>
                </mxCell>
                <mxCell id="64" value="+ AreaUnit()&#10;+ AreaUnit(int, int, int, bool, bool)&#10;+ AreaUnit(int, int, int, bool, bool, char)&#10;+ void InitializeDefaults(int, int, int, bool, bool)&#10;+ void InitializeDefaults(int, int, int, bool, bool, char)&#10;+ void setObjID(int)&#10;+ void setYX(int, int)&#10;+ void setEnvironmentFactor(int)&#10;+ void setSymbol(char)&#10;+ void setisCovered(bool)&#10;+ void setHasNode(bool)&#10;+ int getObjID()&#10;+ int getX()&#10;+ int getY()&#10;+ int getEnvironmentFactor()&#10;+ char getSymbol()&#10;+ int getUserAmt()&#10;+ bool getisCovered()&#10;+ bool getHasNode()&#10;+ AreaUnit* getPointer()&#10;+ UserEquipment* getUserEquipment(int)&#10;+ DeviceList getUsers()&#10;+ void addUserEquipment(UserEquipment*)&#10;+ void update()&#10;" style="text;strokeColor=none;fillColor=none;align=left;verticalAlign=top;spacingLeft=4;spacingRight=4;overflow=hidden;rotatable=0;points=[[0,0.5],[1,0.5]];portConstraint=eastwest;" parent="61" vertex="1">
                    <mxGeometry y="158" width="330" height="362" as="geometry"/>
                </mxCell>
                <mxCell id="65" style="edgeStyle=orthogonalEdgeStyle;rounded=0;orthogonalLoop=1;jettySize=auto;html=1;exitX=0.5;exitY=0;exitDx=0;exitDy=0;entryX=0.217;entryY=1;entryDx=0;entryDy=0;entryPerimeter=0;" parent="WIyWlLk6GJQsqaUBKTNV-1" source="66" target="14" edge="1">
                    <mxGeometry relative="1" as="geometry"/>
                </mxCell>
                <mxCell id="66" value="Coord" style="swimlane;fontStyle=1;align=center;verticalAlign=top;childLayout=stackLayout;horizontal=1;startSize=26;horizontalStack=0;resizeParent=1;resizeParentMax=0;resizeLast=0;collapsible=1;marginBottom=0;fillColor=#6d8764;strokeColor=#3A5431;fontColor=#ffffff;" parent="WIyWlLk6GJQsqaUBKTNV-1" vertex="1">
                    <mxGeometry x="40" y="570" width="160" height="110" as="geometry"/>
                </mxCell>
                <mxCell id="67" value="+ int y&#10;+ int x&#10;" style="text;strokeColor=none;fillColor=none;align=left;verticalAlign=top;spacingLeft=4;spacingRight=4;overflow=hidden;rotatable=0;points=[[0,0.5],[1,0.5]];portConstraint=eastwest;" parent="66" vertex="1">
                    <mxGeometry y="26" width="160" height="34" as="geometry"/>
                </mxCell>
                <mxCell id="68" value="" style="line;strokeWidth=1;fillColor=none;align=left;verticalAlign=middle;spacingTop=-1;spacingLeft=3;spacingRight=3;rotatable=0;labelPosition=right;points=[];portConstraint=eastwest;" parent="66" vertex="1">
                    <mxGeometry y="60" width="160" height="8" as="geometry"/>
                </mxCell>
                <mxCell id="69" value="+ Coord(int, int)&#10;+ Coord()&#10;" style="text;strokeColor=none;fillColor=none;align=left;verticalAlign=top;spacingLeft=4;spacingRight=4;overflow=hidden;rotatable=0;points=[[0,0.5],[1,0.5]];portConstraint=eastwest;" parent="66" vertex="1">
                    <mxGeometry y="68" width="160" height="42" as="geometry"/>
                </mxCell>
                <mxCell id="70" value="CoordF" style="swimlane;fontStyle=1;align=center;verticalAlign=top;childLayout=stackLayout;horizontal=1;startSize=26;horizontalStack=0;resizeParent=1;resizeParentMax=0;resizeLast=0;collapsible=1;marginBottom=0;fillColor=#6d8764;strokeColor=#3A5431;fontColor=#ffffff;" parent="WIyWlLk6GJQsqaUBKTNV-1" vertex="1">
                    <mxGeometry x="840" y="1840" width="160" height="110" as="geometry"/>
                </mxCell>
                <mxCell id="71" value="+ float y&#10;+ float x&#10;" style="text;strokeColor=none;fillColor=none;align=left;verticalAlign=top;spacingLeft=4;spacingRight=4;overflow=hidden;rotatable=0;points=[[0,0.5],[1,0.5]];portConstraint=eastwest;" parent="70" vertex="1">
                    <mxGeometry y="26" width="160" height="34" as="geometry"/>
                </mxCell>
                <mxCell id="72" value="" style="line;strokeWidth=1;fillColor=none;align=left;verticalAlign=middle;spacingTop=-1;spacingLeft=3;spacingRight=3;rotatable=0;labelPosition=right;points=[];portConstraint=eastwest;" parent="70" vertex="1">
                    <mxGeometry y="60" width="160" height="8" as="geometry"/>
                </mxCell>
                <mxCell id="73" value="+ CoordF(float, float)&#10;+ CoordF()&#10;" style="text;strokeColor=none;fillColor=none;align=left;verticalAlign=top;spacingLeft=4;spacingRight=4;overflow=hidden;rotatable=0;points=[[0,0.5],[1,0.5]];portConstraint=eastwest;" parent="70" vertex="1">
                    <mxGeometry y="68" width="160" height="42" as="geometry"/>
                </mxCell>
                <mxCell id="74" style="edgeStyle=orthogonalEdgeStyle;rounded=0;orthogonalLoop=1;jettySize=auto;html=1;exitX=0.5;exitY=1;exitDx=0;exitDy=0;entryX=0.5;entryY=0;entryDx=0;entryDy=0;" parent="WIyWlLk6GJQsqaUBKTNV-1" source="75" target="50" edge="1">
                    <mxGeometry relative="1" as="geometry"/>
                </mxCell>
                <mxCell id="75" value="UEDataBase" style="swimlane;fontStyle=1;align=center;verticalAlign=top;childLayout=stackLayout;horizontal=1;startSize=26;horizontalStack=0;resizeParent=1;resizeParentMax=0;resizeLast=0;collapsible=1;marginBottom=0;fillColor=#FF99FF;" parent="WIyWlLk6GJQsqaUBKTNV-1" vertex="1">
                    <mxGeometry x="40" y="1440" width="240" height="170" as="geometry"/>
                </mxCell>
                <mxCell id="76" value="# std::vector&lt;UErecord&gt; db&#10;# std::map&lt;int,int&gt; lookupTbl" style="text;strokeColor=none;fillColor=none;align=left;verticalAlign=top;spacingLeft=4;spacingRight=4;overflow=hidden;rotatable=0;points=[[0,0.5],[1,0.5]];portConstraint=eastwest;" parent="75" vertex="1">
                    <mxGeometry y="26" width="240" height="44" as="geometry"/>
                </mxCell>
                <mxCell id="77" value="" style="line;strokeWidth=1;fillColor=none;align=left;verticalAlign=middle;spacingTop=-1;spacingLeft=3;spacingRight=3;rotatable=0;labelPosition=right;points=[];portConstraint=eastwest;" parent="75" vertex="1">
                    <mxGeometry y="70" width="240" height="8" as="geometry"/>
                </mxCell>
                <mxCell id="78" value="# void updateLUT()&#10;+UErecord&amp; (const int&amp;)&#10;+ void shuffle()&#10;+ void push_back(const UErecord&amp;)&#10;+ int size()&#10;+ UErecord look_up(const int&amp;)" style="text;strokeColor=none;fillColor=none;align=left;verticalAlign=top;spacingLeft=4;spacingRight=4;overflow=hidden;rotatable=0;points=[[0,0.5],[1,0.5]];portConstraint=eastwest;" parent="75" vertex="1">
                    <mxGeometry y="78" width="240" height="92" as="geometry"/>
                </mxCell>
                <mxCell id="79" value="Only used by" style="text;html=1;strokeColor=none;fillColor=none;align=center;verticalAlign=middle;whiteSpace=wrap;rounded=0;" parent="WIyWlLk6GJQsqaUBKTNV-1" vertex="1">
                    <mxGeometry x="431.5" y="75" width="48" height="20" as="geometry"/>
                </mxCell>
                <mxCell id="80" value="Initialized in" style="text;html=1;strokeColor=none;fillColor=none;align=center;verticalAlign=middle;whiteSpace=wrap;rounded=0;" parent="WIyWlLk6GJQsqaUBKTNV-1" vertex="1">
                    <mxGeometry x="330" y="665" width="70" height="20" as="geometry"/>
                </mxCell>
                <mxCell id="81" style="edgeStyle=orthogonalEdgeStyle;rounded=0;orthogonalLoop=1;jettySize=auto;html=1;exitX=0;exitY=0.5;exitDx=0;exitDy=0;entryX=1;entryY=0.5;entryDx=0;entryDy=0;" parent="WIyWlLk6GJQsqaUBKTNV-1" source="5" target="14" edge="1">
                    <mxGeometry relative="1" as="geometry"/>
                </mxCell>
                <mxCell id="82" value="Calls one of either&lt;br&gt;generateNewENV()&lt;br&gt;functions" style="text;html=1;strokeColor=none;fillColor=none;align=center;verticalAlign=middle;whiteSpace=wrap;rounded=0;" parent="WIyWlLk6GJQsqaUBKTNV-1" vertex="1">
                    <mxGeometry x="460" y="235" width="50" height="20" as="geometry"/>
                </mxCell>
                <mxCell id="83" style="edgeStyle=orthogonalEdgeStyle;rounded=0;orthogonalLoop=1;jettySize=auto;html=1;exitX=1;exitY=0.5;exitDx=0;exitDy=0;entryX=-0.002;entryY=0.57;entryDx=0;entryDy=0;entryPerimeter=0;" parent="WIyWlLk6GJQsqaUBKTNV-1" source="5" target="19" edge="1">
                    <mxGeometry relative="1" as="geometry"/>
                </mxCell>
                <mxCell id="84" value="Calls render and user input methods&lt;br&gt;" style="text;html=1;strokeColor=none;fillColor=none;align=center;verticalAlign=middle;whiteSpace=wrap;rounded=0;" parent="WIyWlLk6GJQsqaUBKTNV-1" vertex="1">
                    <mxGeometry x="864.5" y="184.5" width="90" height="20" as="geometry"/>
                </mxCell>
                <mxCell id="85" value="Calls print and user input methods" style="text;html=1;strokeColor=none;fillColor=none;align=center;verticalAlign=middle;whiteSpace=wrap;rounded=0;" parent="WIyWlLk6GJQsqaUBKTNV-1" vertex="1">
                    <mxGeometry x="1099.5" y="334.5" width="80" height="20" as="geometry"/>
                </mxCell>
                <mxCell id="86" value="Calls environmentDiagnostic()" style="text;html=1;strokeColor=none;fillColor=none;align=center;verticalAlign=middle;whiteSpace=wrap;rounded=0;" parent="WIyWlLk6GJQsqaUBKTNV-1" vertex="1">
                    <mxGeometry x="760" y="424.5" width="120" height="20" as="geometry"/>
                </mxCell>
                <mxCell id="87" value="Calls all functions&lt;br&gt;" style="text;html=1;strokeColor=none;fillColor=none;align=center;verticalAlign=middle;whiteSpace=wrap;rounded=0;" parent="WIyWlLk6GJQsqaUBKTNV-1" vertex="1">
                    <mxGeometry x="564.5" y="350" width="80" height="20" as="geometry"/>
                </mxCell>
                <mxCell id="88" value="Calls user input methods and numberOfDigits()" style="text;html=1;strokeColor=none;fillColor=none;align=center;verticalAlign=middle;whiteSpace=wrap;rounded=0;" parent="WIyWlLk6GJQsqaUBKTNV-1" vertex="1">
                    <mxGeometry x="855" y="110" width="90" height="20" as="geometry"/>
                </mxCell>
                <mxCell id="89" value="TransceiverList" style="swimlane;fontStyle=1;align=center;verticalAlign=top;childLayout=stackLayout;horizontal=1;startSize=26;horizontalStack=0;resizeParent=1;resizeParentMax=0;resizeLast=0;collapsible=1;marginBottom=0;fillColor=#f8cecc;strokeColor=#b85450;" parent="WIyWlLk6GJQsqaUBKTNV-1" vertex="1">
                    <mxGeometry x="400" y="2200" width="270" height="150" as="geometry"/>
                </mxCell>
                <mxCell id="90" value="# Transceiver* Transceviers&#10;# int currentNumUsers" style="text;strokeColor=none;fillColor=none;align=left;verticalAlign=top;spacingLeft=4;spacingRight=4;overflow=hidden;rotatable=0;points=[[0,0.5],[1,0.5]];portConstraint=eastwest;" parent="89" vertex="1">
                    <mxGeometry y="26" width="270" height="34" as="geometry"/>
                </mxCell>
                <mxCell id="91" value="" style="line;strokeWidth=1;fillColor=none;align=left;verticalAlign=middle;spacingTop=-1;spacingLeft=3;spacingRight=3;rotatable=0;labelPosition=right;points=[];portConstraint=eastwest;" parent="89" vertex="1">
                    <mxGeometry y="60" width="270" height="8" as="geometry"/>
                </mxCell>
                <mxCell id="92" value="+ TransceiverList()&#10;+ Transceiver&amp; operator[](int x)&#10;+ void clear()&#10;+ int size()&#10;+ bool push_back(UserEquipment* user)&#10;" style="text;strokeColor=none;fillColor=none;align=left;verticalAlign=top;spacingLeft=4;spacingRight=4;overflow=hidden;rotatable=0;points=[[0,0.5],[1,0.5]];portConstraint=eastwest;" parent="89" vertex="1">
                    <mxGeometry y="68" width="270" height="82" as="geometry"/>
                </mxCell>
                <mxCell id="93" style="edgeStyle=orthogonalEdgeStyle;rounded=0;orthogonalLoop=1;jettySize=auto;html=1;exitX=0.5;exitY=0;exitDx=0;exitDy=0;entryX=0.772;entryY=1.007;entryDx=0;entryDy=0;entryPerimeter=0;" parent="WIyWlLk6GJQsqaUBKTNV-1" source="94" target="45" edge="1">
                    <mxGeometry relative="1" as="geometry">
                        <Array as="points">
                            <mxPoint x="960" y="1600"/>
                            <mxPoint x="680" y="1600"/>
                            <mxPoint x="680" y="1470"/>
                            <mxPoint x="585" y="1470"/>
                        </Array>
                    </mxGeometry>
                </mxCell>
                <mxCell id="94" value="Signals" style="swimlane;fontStyle=1;align=center;verticalAlign=top;childLayout=stackLayout;horizontal=1;startSize=26;horizontalStack=0;resizeParent=1;resizeParentMax=0;resizeLast=0;collapsible=1;marginBottom=0;fillColor=#008a00;strokeColor=#005700;fontColor=#ffffff;" parent="WIyWlLk6GJQsqaUBKTNV-1" vertex="1">
                    <mxGeometry x="840" y="1640" width="240" height="60" as="geometry"/>
                </mxCell>
                <mxCell id="95" value="std::vector&lt;Signal&gt; Signals;" style="text;strokeColor=none;fillColor=none;align=left;verticalAlign=top;spacingLeft=4;spacingRight=4;overflow=hidden;rotatable=0;points=[[0,0.5],[1,0.5]];portConstraint=eastwest;" parent="94" vertex="1">
                    <mxGeometry y="26" width="240" height="34" as="geometry"/>
                </mxCell>
                <mxCell id="96" style="edgeStyle=orthogonalEdgeStyle;rounded=0;orthogonalLoop=1;jettySize=auto;html=1;exitX=0.5;exitY=0;exitDx=0;exitDy=0;entryX=1;entryY=0.5;entryDx=0;entryDy=0;" parent="WIyWlLk6GJQsqaUBKTNV-1" source="97" target="49" edge="1">
                    <mxGeometry relative="1" as="geometry">
                        <Array as="points">
                            <mxPoint x="940" y="1740"/>
                            <mxPoint x="730" y="1740"/>
                            <mxPoint x="730" y="1629"/>
                        </Array>
                    </mxGeometry>
                </mxCell>
                <mxCell id="97" value="PacketBundle" style="swimlane;fontStyle=1;align=center;verticalAlign=top;childLayout=stackLayout;horizontal=1;startSize=26;horizontalStack=0;resizeParent=1;resizeParentMax=0;resizeLast=0;collapsible=1;marginBottom=0;fillColor=#008a00;strokeColor=#005700;fontColor=#ffffff;" parent="WIyWlLk6GJQsqaUBKTNV-1" vertex="1">
                    <mxGeometry x="840" y="1760" width="240" height="52" as="geometry"/>
                </mxCell>
                <mxCell id="98" value="std::vector&lt;Packet&gt; PacketBundle;" style="text;strokeColor=none;fillColor=none;align=left;verticalAlign=top;spacingLeft=4;spacingRight=4;overflow=hidden;rotatable=0;points=[[0,0.5],[1,0.5]];portConstraint=eastwest;" parent="97" vertex="1">
                    <mxGeometry y="26" width="240" height="26" as="geometry"/>
                </mxCell>
                <mxCell id="99" style="edgeStyle=orthogonalEdgeStyle;rounded=0;orthogonalLoop=1;jettySize=auto;html=1;exitX=1;exitY=0.5;exitDx=0;exitDy=0;" parent="WIyWlLk6GJQsqaUBKTNV-1" source="59" edge="1">
                    <mxGeometry relative="1" as="geometry">
                        <Array as="points">
                            <mxPoint x="370" y="1234"/>
                            <mxPoint x="370" y="1700"/>
                            <mxPoint x="700" y="1700"/>
                            <mxPoint x="700" y="1789"/>
                            <mxPoint x="840" y="1789"/>
                        </Array>
                        <mxPoint x="840" y="1789" as="targetPoint"/>
                    </mxGeometry>
                </mxCell>
                <mxCell id="100" value="Coord is used in lots of places: mostly NEI." style="text;html=1;strokeColor=none;fillColor=none;align=center;verticalAlign=middle;whiteSpace=wrap;rounded=0;" parent="WIyWlLk6GJQsqaUBKTNV-1" vertex="1">
                    <mxGeometry x="210" y="610" width="70" height="20" as="geometry"/>
                </mxCell>
                <mxCell id="101" style="edgeStyle=orthogonalEdgeStyle;rounded=0;orthogonalLoop=1;jettySize=auto;html=1;exitX=0;exitY=0.5;exitDx=0;exitDy=0;" parent="WIyWlLk6GJQsqaUBKTNV-1" source="16" target="12" edge="1">
                    <mxGeometry relative="1" as="geometry">
                        <Array as="points">
                            <mxPoint x="430" y="98"/>
                            <mxPoint x="430" y="98"/>
                        </Array>
                    </mxGeometry>
                </mxCell>
                <mxCell id="102" style="edgeStyle=orthogonalEdgeStyle;rounded=0;orthogonalLoop=1;jettySize=auto;html=1;exitX=0;exitY=0.5;exitDx=0;exitDy=0;entryX=0.761;entryY=1.001;entryDx=0;entryDy=0;entryPerimeter=0;" parent="WIyWlLk6GJQsqaUBKTNV-1" source="10" target="14" edge="1">
                    <mxGeometry relative="1" as="geometry"/>
                </mxCell>
                <mxCell id="103" value="DeviceList" style="swimlane;fontStyle=1;align=center;verticalAlign=top;childLayout=stackLayout;horizontal=1;startSize=26;horizontalStack=0;resizeParent=1;resizeParentMax=0;resizeLast=0;collapsible=1;marginBottom=0;fillColor=#008a00;strokeColor=#005700;fontColor=#ffffff;" parent="WIyWlLk6GJQsqaUBKTNV-1" vertex="1">
                    <mxGeometry x="840" y="1525" width="240" height="52" as="geometry">
                        <mxRectangle x="1030" y="1496" width="100" height="26" as="alternateBounds"/>
                    </mxGeometry>
                </mxCell>
                <mxCell id="104" value="std::vector&lt;UserEquipment*&gt; DeviceList;" style="text;strokeColor=none;fillColor=none;align=left;verticalAlign=top;spacingLeft=4;spacingRight=4;overflow=hidden;rotatable=0;points=[[0,0.5],[1,0.5]];portConstraint=eastwest;" parent="103" vertex="1">
                    <mxGeometry y="26" width="240" height="26" as="geometry"/>
                </mxCell>
                <mxCell id="105" value="&lt;div style=&quot;font-size: 15px&quot; align=&quot;center&quot;&gt;&lt;font style=&quot;font-size: 15px&quot; size=&quot;1&quot;&gt;&lt;b style=&quot;font-size: 24px&quot;&gt;COMMENTS&lt;/b&gt;&lt;/font&gt;&lt;/div&gt;&lt;div style=&quot;font-size: 15px&quot; align=&quot;center&quot;&gt;&lt;font style=&quot;font-size: 15px&quot;&gt;&lt;b&gt;&lt;br&gt;&lt;/b&gt;&lt;/font&gt;&lt;/div&gt;&lt;div style=&quot;font-size: 15px&quot; align=&quot;center&quot;&gt;&lt;font style=&quot;font-size: 15px&quot;&gt;&lt;b&gt;&lt;br&gt;&lt;/b&gt;&lt;/font&gt;&lt;/div&gt;&lt;div style=&quot;font-size: 15px&quot;&gt;&lt;font style=&quot;font-size: 15px&quot;&gt;Unless otherwise noted, arrows that are connected from one diagram to another means that there are instances of the object being pointed to within the UML diagram that the arrow originates from.&lt;/font&gt;&lt;/div&gt;&lt;div style=&quot;font-size: 15px&quot;&gt;&lt;font style=&quot;font-size: 15px&quot;&gt;&lt;br&gt;&lt;/font&gt;&lt;/div&gt;&lt;div style=&quot;font-size: 15px&quot;&gt;&lt;font style=&quot;font-size: 15px&quot;&gt;UML diagrams with the dark green color (e.g. DeviceList) are either simple data-only classes or custom types that function as a vector type for instantiations of its related class&lt;br&gt;&lt;/font&gt;&lt;/div&gt;&lt;div style=&quot;font-size: 15px&quot;&gt;&lt;font style=&quot;font-size: 15px&quot;&gt;&lt;br&gt;&lt;/font&gt;&lt;/div&gt;&lt;div style=&quot;font-size: 15px&quot;&gt;&lt;font style=&quot;font-size: 15px&quot;&gt;The diagrams with the light green color are not classes, they are header files with code that are treated as classes here.&lt;/font&gt;&lt;/div&gt;" style="rounded=0;whiteSpace=wrap;html=1;align=center;fillColor=#a0522d;strokeColor=#6D1F00;fontColor=#ffffff;" parent="WIyWlLk6GJQsqaUBKTNV-1" vertex="1">
                    <mxGeometry x="939.5" y="460" width="320" height="399" as="geometry"/>
                </mxCell>
                <mxCell id="106" style="edgeStyle=orthogonalEdgeStyle;rounded=0;orthogonalLoop=1;jettySize=auto;html=1;exitX=0;exitY=0.5;exitDx=0;exitDy=0;" parent="WIyWlLk6GJQsqaUBKTNV-1" source="104" target="40" edge="1">
                    <mxGeometry relative="1" as="geometry">
                        <Array as="points">
                            <mxPoint x="750" y="1564"/>
                            <mxPoint x="750" y="1130"/>
                        </Array>
                    </mxGeometry>
                </mxCell>
                <mxCell id="107" value="Container for" style="text;html=1;strokeColor=none;fillColor=none;align=center;verticalAlign=middle;whiteSpace=wrap;rounded=0;" parent="WIyWlLk6GJQsqaUBKTNV-1" vertex="1">
                    <mxGeometry x="740" y="1710.5" width="40" height="20" as="geometry"/>
                </mxCell>
                <mxCell id="108" value="Container for" style="text;html=1;strokeColor=none;fillColor=none;align=center;verticalAlign=middle;whiteSpace=wrap;rounded=0;" parent="WIyWlLk6GJQsqaUBKTNV-1" vertex="1">
                    <mxGeometry x="690" y="1575" width="40" height="20" as="geometry"/>
                </mxCell>
                <mxCell id="109" value="Container for" style="text;html=1;strokeColor=none;fillColor=none;align=center;verticalAlign=middle;whiteSpace=wrap;rounded=0;" parent="WIyWlLk6GJQsqaUBKTNV-1" vertex="1">
                    <mxGeometry x="160" y="690" width="40" height="20" as="geometry"/>
                </mxCell>
                <mxCell id="110" style="edgeStyle=orthogonalEdgeStyle;rounded=0;orthogonalLoop=1;jettySize=auto;html=1;exitX=0;exitY=0.5;exitDx=0;exitDy=0;" parent="WIyWlLk6GJQsqaUBKTNV-1" source="71" edge="1">
                    <mxGeometry relative="1" as="geometry">
                        <mxPoint x="670" y="1888" as="targetPoint"/>
                        <Array as="points">
                            <mxPoint x="840" y="1888"/>
                        </Array>
                    </mxGeometry>
                </mxCell>
                <mxCell id="111" style="edgeStyle=orthogonalEdgeStyle;rounded=0;orthogonalLoop=1;jettySize=auto;html=1;exitX=1;exitY=0.5;exitDx=0;exitDy=0;entryX=0;entryY=0.5;entryDx=0;entryDy=0;" parent="WIyWlLk6GJQsqaUBKTNV-1" source="28" target="98" edge="1">
                    <mxGeometry relative="1" as="geometry">
                        <Array as="points">
                            <mxPoint x="670" y="1799"/>
                        </Array>
                    </mxGeometry>
                </mxCell>
                <mxCell id="112" style="edgeStyle=orthogonalEdgeStyle;rounded=0;orthogonalLoop=1;jettySize=auto;html=1;exitX=1;exitY=0.5;exitDx=0;exitDy=0;" parent="WIyWlLk6GJQsqaUBKTNV-1" source="92" edge="1">
                    <mxGeometry relative="1" as="geometry">
                        <mxPoint x="750" y="2317" as="targetPoint"/>
                        <Array as="points">
                            <mxPoint x="670" y="2317"/>
                        </Array>
                    </mxGeometry>
                </mxCell>
                <mxCell id="113" value="Uses" style="text;html=1;strokeColor=none;fillColor=none;align=center;verticalAlign=middle;whiteSpace=wrap;rounded=0;" parent="WIyWlLk6GJQsqaUBKTNV-1" vertex="1">
                    <mxGeometry x="290" y="1210" width="40" height="20" as="geometry"/>
                </mxCell>
                <mxCell id="114" style="edgeStyle=orthogonalEdgeStyle;rounded=0;orthogonalLoop=1;jettySize=auto;html=1;exitX=0.465;exitY=0.006;exitDx=0;exitDy=0;entryX=0.694;entryY=1.02;entryDx=0;entryDy=0;entryPerimeter=0;exitPerimeter=0;" parent="WIyWlLk6GJQsqaUBKTNV-1" source="116" target="69" edge="1">
                    <mxGeometry relative="1" as="geometry">
                        <Array as="points"/>
                    </mxGeometry>
                </mxCell>
                <mxCell id="115" style="edgeStyle=orthogonalEdgeStyle;rounded=0;orthogonalLoop=1;jettySize=auto;html=1;exitX=0.25;exitY=1;exitDx=0;exitDy=0;entryX=0.25;entryY=0;entryDx=0;entryDy=0;" parent="WIyWlLk6GJQsqaUBKTNV-1" source="116" target="56" edge="1">
                    <mxGeometry relative="1" as="geometry"/>
                </mxCell>
                <mxCell id="116" value="Region" style="swimlane;fontStyle=1;align=center;verticalAlign=top;childLayout=stackLayout;horizontal=1;startSize=26;horizontalStack=0;resizeParent=1;resizeParentMax=0;resizeLast=0;collapsible=1;marginBottom=0;fillColor=#008a00;strokeColor=#005700;fontColor=#ffffff;" parent="WIyWlLk6GJQsqaUBKTNV-1" vertex="1">
                    <mxGeometry x="40" y="720" width="240" height="52" as="geometry">
                        <mxRectangle x="1030" y="1496" width="100" height="26" as="alternateBounds"/>
                    </mxGeometry>
                </mxCell>
                <mxCell id="117" value="std::vector&lt;Coord*&gt; Region;" style="text;strokeColor=none;fillColor=none;align=left;verticalAlign=top;spacingLeft=4;spacingRight=4;overflow=hidden;rotatable=0;points=[[0,0.5],[1,0.5]];portConstraint=eastwest;" parent="116" vertex="1">
                    <mxGeometry y="26" width="240" height="26" as="geometry"/>
                </mxCell>
                <mxCell id="118" value="Container for" style="text;html=1;strokeColor=none;fillColor=none;align=center;verticalAlign=middle;whiteSpace=wrap;rounded=0;" parent="WIyWlLk6GJQsqaUBKTNV-1" vertex="1">
                    <mxGeometry x="760" y="1541" width="40" height="20" as="geometry"/>
                </mxCell>
                <mxCell id="119" style="edgeStyle=orthogonalEdgeStyle;rounded=0;orthogonalLoop=1;jettySize=auto;html=1;exitX=0.5;exitY=0;exitDx=0;exitDy=0;entryX=0.997;entryY=0.889;entryDx=0;entryDy=0;entryPerimeter=0;" parent="WIyWlLk6GJQsqaUBKTNV-1" source="120" target="14" edge="1">
                    <mxGeometry relative="1" as="geometry"/>
                </mxCell>
                <mxCell id="120" value="envT" style="swimlane;fontStyle=0;childLayout=stackLayout;horizontal=1;startSize=26;fillColor=#008a00;horizontalStack=0;resizeParent=1;resizeParentMax=0;resizeLast=0;collapsible=1;marginBottom=0;strokeColor=#005700;fontColor=#ffffff;" parent="WIyWlLk6GJQsqaUBKTNV-1" vertex="1">
                    <mxGeometry x="367.5" y="560" width="210" height="50" as="geometry"/>
                </mxCell>
                <mxCell id="121" value="std::vector&lt;std::vector&lt;int&gt;&gt; envT" style="text;strokeColor=none;fillColor=none;align=left;verticalAlign=top;spacingLeft=4;spacingRight=4;overflow=hidden;rotatable=0;points=[[0,0.5],[1,0.5]];portConstraint=eastwest;" parent="120" vertex="1">
                    <mxGeometry y="26" width="210" height="24" as="geometry"/>
                </mxCell>
                <mxCell id="122" value="Only used by" style="text;html=1;strokeColor=none;fillColor=none;align=center;verticalAlign=middle;whiteSpace=wrap;rounded=0;" parent="WIyWlLk6GJQsqaUBKTNV-1" vertex="1">
                    <mxGeometry x="424.5" y="500" width="48" height="20" as="geometry"/>
                </mxCell>
                <mxCell id="123" value="Shape" style="swimlane;fontStyle=0;childLayout=stackLayout;horizontal=1;startSize=26;fillColor=#008a00;horizontalStack=0;resizeParent=1;resizeParentMax=0;resizeLast=0;collapsible=1;marginBottom=0;strokeColor=#005700;fontColor=#ffffff;" parent="WIyWlLk6GJQsqaUBKTNV-1" vertex="1">
                    <mxGeometry x="692" y="50" width="116" height="50" as="geometry"/>
                </mxCell>
                <mxCell id="124" value="ShapeUnit** Shape" style="text;strokeColor=none;fillColor=none;align=left;verticalAlign=top;spacingLeft=4;spacingRight=4;overflow=hidden;rotatable=0;points=[[0,0.5],[1,0.5]];portConstraint=eastwest;" parent="123" vertex="1">
                    <mxGeometry y="26" width="116" height="24" as="geometry"/>
                </mxCell>
                <mxCell id="125" style="edgeStyle=orthogonalEdgeStyle;rounded=0;orthogonalLoop=1;jettySize=auto;html=1;exitX=0;exitY=0.5;exitDx=0;exitDy=0;entryX=1;entryY=0.681;entryDx=0;entryDy=0;entryPerimeter=0;" parent="WIyWlLk6GJQsqaUBKTNV-1" source="124" target="12" edge="1">
                    <mxGeometry relative="1" as="geometry">
                        <Array as="points">
                            <mxPoint x="640" y="88"/>
                            <mxPoint x="640" y="130"/>
                        </Array>
                    </mxGeometry>
                </mxCell>
                <mxCell id="126" value="Only used by" style="text;html=1;strokeColor=none;fillColor=none;align=center;verticalAlign=middle;whiteSpace=wrap;rounded=0;" parent="WIyWlLk6GJQsqaUBKTNV-1" vertex="1">
                    <mxGeometry x="642" y="65" width="48" height="20" as="geometry"/>
                </mxCell>
                <mxCell id="127" style="edgeStyle=orthogonalEdgeStyle;rounded=0;orthogonalLoop=1;jettySize=auto;html=1;" parent="WIyWlLk6GJQsqaUBKTNV-1" source="24" target="12" edge="1">
                    <mxGeometry relative="1" as="geometry"/>
                </mxCell>
            </root>
        </mxGraphModel>
    </diagram>
</mxfile>